<mxfile host="app.diagrams.net" modified="2023-08-01T17:24:37.762Z" agent="Mozilla/5.0 (Windows NT 10.0; Win64; x64) AppleWebKit/537.36 (KHTML, like Gecko) Chrome/115.0.0.0 Safari/537.36" version="21.6.5" etag="qsXF7-Tt4AjPVvF98-yY" type="device">
  <diagram name="Page-0" id="Page-0">
    <mxGraphModel dx="2487" dy="445" grid="1" gridSize="10" guides="1" tooltips="1" connect="1" arrows="1" fold="1" page="1" pageScale="1" pageWidth="1693" pageHeight="901" math="0" shadow="0">
      <root>
        <mxCell id="0" />
        <mxCell id="1" parent="0" />
        <mxCell id="2" style="vsdxID=1;fillColor=none;gradientColor=none;image;aspect=fixed;image=data:image/png,/9j/4AAQSkZJRgABAQAAAQABAAD/2wBDAAgGBgcGBQgHBwcJCQgKDBQNDAsLDBkSEw8UHRofHh0aHBwgJC4nICIsIxwcKDcpLDAxNDQ0Hyc5PTgyPC4zNDL/2wBDAQkJCQwLDBgNDRgyIRwhMjIyMjIyMjIyMjIyMjIyMjIyMjIyMjIyMjIyMjIyMjIyMjIyMjIyMjIyMjIyMjIyMjL/wAARCAGqAyADASIAAhEBAxEB/8QAHwAAAQUBAQEBAQEAAAAAAAAAAAECAwQFBgcICQoL/8QAtRAAAgEDAwIEAwUFBAQAAAF9AQIDAAQRBRIhMUEGE1FhByJxFDKBkaEII0KxwRVS0fAkM2JyggkKFhcYGRolJicoKSo0NTY3ODk6Q0RFRkdISUpTVFVWV1hZWmNkZWZnaGlqc3R1dnd4eXqDhIWGh4iJipKTlJWWl5iZmqKjpKWmp6ipqrKztLW2t7i5usLDxMXGx8jJytLT1NXW19jZ2uHi4+Tl5ufo6erx8vP09fb3+Pn6/8QAHwEAAwEBAQEBAQEBAQAAAAAAAAECAwQFBgcICQoL/8QAtREAAgECBAQDBAcFBAQAAQJ3AAECAxEEBSExBhJBUQdhcRMiMoEIFEKRobHBCSMzUvAVYnLRChYkNOEl8RcYGRomJygpKjU2Nzg5OkNERUZHSElKU1RVVldYWVpjZGVmZ2hpanN0dXZ3eHl6goOEhYaHiImKkpOUlZaXmJmaoqOkpaanqKmqsrO0tba3uLm6wsPExcbHyMnK0tPU1dbX2Nna4uPk5ebn6Onq8vP09fb3+Pn6/9oADAMBAAIRAxEAPwD3W4dlcYJHHrUPmP8A3j+dS3X+sH0qCgB3mP8A3j+dHmP/AHj+dNooAd5j/wB4/nR5r/3z+dNrmfH9ve3Xg66isY5pGMkRmjgzveEODIq45JK54FAHSxXSzLuinWRc4yj5H6Uk14ltH5k86xJkLud9oyTgDJ7k157q2p2sLWS6D9q03RpBMbm4sLFkbzgg8pcFOh5zx1AGa5/U7vxLqUFtb639vjnB02WO1htiYpf3gMruQpwQQO4xQB7N5j/3j+dRtexpKInuY1lPRDIAx/DNef8AhrUvE134vlTUZ2jjWe5We0kV8CMH90UHlhRxjned2ao+JILFvFfipb7T5bme40y3jsNlszu0uH/1bAfKQSvORigD1LzH/vH86PMf+8fzryyC88Yx+ILXTru7a3eJbRACHKTqUHnH5YyGbdu5LDGBUP8AbPjVrDVkj+1mfR4fszu0X/Hy7Tcyrwd22IZ4B5PQ0AerPdpHLHE86rJLkRoz4L45OB3p/mP/AHj+deStP4hlfTb2Nm1C4glvWsm2u5A8j5VdmRNx3Zwcc9Kjm8Q65b2fmx6pqjWLS2CSXM1tiVJXYiaNAVGQBjjBwaAPXvMf+8fzo8x/7x/OvJf7R8VXNuwj1DVI4Et9QltpvJAknWNl8gvlep57AkVJdar4ttLS6SO4vZ1P2CWWZ49rQpIpM20qhwAQP4SVzQB6t5j/AN4/nR5r/wB8/nXlMt94qks4x/al38mnXtwkttGT5jI48kMWjBJxkdBurY8Irdf8Jrq9xfTXolu7O1nSKQERNmP58cYG1uMZyM0Ad95j/wB4/nR5j/3j+dNooAd5j/3j+dHmP/eP502igB3mP/eP51ktdT7j++k6/wB41qVit98/WsKz2M6hL9quP+e0n/fRo+1XH/PaT/vo1DRWF2Z3ZN9quP8AntJ/30aY2oOjqj3ZV2+6pkwT9BmmVxNutvb+LNbbWLN5ruaeNtOeS3aRTGFG0IwBC4bOenrTV2Cud59quP8AntJ/30aPtVx/z2k/76NeTjWfE7abLLDc6g9z9iL3iyW+BbXPmqAsfy/3d3HPAzVjUE1N9Rt0u73U2tbDXEUTqvzCJos5O1eQGOM44zT5X3HZnpsOotcKzQ3hkVWKEpJkBh1HB6in/arj/ntJ/wB9GvLvtGusZ4oLi8tUX+0pf3MIXcyOPLz8vf8AM1Mmva99rihmN4Jp7uxdFWA7RCyDzecYA3ZBycijlfcLM9L+1XH/AD2k/wC+jR9quP8AntJ/30a8o/tbxVJYTvbzag999inkvYWgwttMrjYI/l5yueBnI5qbUNf1maPULq1ur1baK7j8mLyHR508kErG2w4JfkZGD0o5X3CzPUGvZUUs9wyqO7OQKX7Vcf8APaT/AL6Ncl42Wa68B3QSCUyukJ8vblwd6kggdx3rIFxrsmsYN5feRLqk1n5QQBVh8olWBxkEN0bNJJtbhqeifap/+e8n/fRo+1XH/PaT/vo15DZ3WuWHhbQrW2ub2KPy5lupZd4aKcfdQny2O3qcY59auRa5rE3iy2tbzUpoIYpoIpWjUrDI5iyY8bfvM5B5I44xT5X3CzPUvtVx/wA9pP8Avo1HNqTW0fmT3nlJkLueTaMk4AyT615Pc6v4ks/DFlObvVptRuoXuAxQKkbK2BHtEZJJHODjuc1ZuEvre98Qv5l68813ZSxxPGXQxkx7mUFcccj2/WnyvuFmep/arj/ntJ/30aPtVx/z2k/76NeXS6v4k8y5Mc199sUX32m3MH7u3RQfIZDt5J+XGCc5NdF4Wn1Q6le21/cXNxELW2nR50AId1O9QQBxkDjtSaa6hZnX/arj/ntJ/wB9Gj7Vcf8APaT/AL6NQ0VN2K7JvtVx/wA9pP8Avo0G6uP+e0n/AH0ahoq6TftI+om3Yl+1XH/PaT/vo0farj/ntJ/30aipK9iyIuyb7Vcf89pP++jR9quP+e0n/fRqKkosguyb7Vcf89pP++jR9quP+e0n/fRqKkosguyb7Vcf89pP++jR9quP+e0n/fRqKkosguyb7Vcf89pP++jR9quP+e0n/fRqKkosguyb7Vcf89pP++jR9quP+e0n/fRqKkosguyb7Vcf89pP++jR9quP+e0n/fRqKkosguyb7Vcf89pP++jR9quP+e0n/fRqKkosguyb7Vcf89pP++jR9quP+e0n/fRqKkosguyRr90dUe7Ks33VMmCfpzzTvtVx/wA9pP8Avo1wcK29v4t1t9Ys3mu5po2015LdpFMYQbQjAELhs56etYZ1nxOdMnlhudQe6+wl7tXt8C2ufNUBY/l5+XdxzwM1N12Ks+56x9quP+e8n/fRqOHUWuFZobwyKrFCUkzhh1HB6ivM9STU21KGO7vdTa0sNcjVZ1X5hE0OcnavIDHGccZoFxrrPPDBcXlqg/tKXMMIXcyMDFn5e/60XXYLPueofarj/ntJ/wB9Gj7Vcf8APaT/AL6NeZrr+v8A2iOKY3gmuLiwkjVbc7REyDzecYA3ZByciqrat4pksrlrabUHvhZ3D3cLQYW2lVx5Yj+XnIzwCcjmjmXYLPuerfarj/ntJ/30aR72WNC73LIo6szkAV5jqGv6xMmoXVpdXqW0d1F5MXkOjzp5IJVG2HBLc8jB6V0HjhZLr4f3f7iVndIWaIpuf76Eggd+uaLrsKz7nWx30kqb4roup/iWTI/Q077Vcf8APaT/AL6NeX38t7a3Wr6h4VtZYdOdLaN2jhaNS+8+Y6LtPRMAkKfxxUVxrWsQJYRXWr3aRTR3jJJaRM7sFCmIEmMEkE4ztGaLrsOz7nqS6g7yyRJdlpI8b0EmSuemRnin/arj/ntJ/wB9GvKbe612C7mubxbq0N1JYDUriCEl418g7ivB/iwCQDjNLNrHiu3tdNQz3BfVy9lbvIgVomEuUmIxwTFkn6DijmXYLPueq/arj/ntJ/30aPtVx/z2k/76NebCTxBNqap/ampRwyajd2xCxrhYkTchBK8ZI61TGs+LJzpoaeS2Z7OF43eNgssu4hw6rG2TgDjK4zmi67BZ9z1X7Vcf89pP++jR9qn/AOe8n/fRrzcz6/cXbI13fmK5vL61MQQBUjVCYypxkHPAOea6HwMrJ4N01HluHlSILILgEMjDqvIHApqzewnddTp/tVx/z2k/76NH2q4/57Sf99GoqSnZCuyb7Vcf89pP++jR9quP+e0n/fRqKkosguyb7Vcf89pP++jR9quP+e0n/fRqKkosguyb7Vcf89pP++jR9quP+e0n/fRqKkosguyb7Vcf89pP++jR9quP+e0n/fRqKkosguyb7Vcf89pP++jR9quP+e0n/fRqKkosguyb7Vcf89pP++jR9quP+e0n/fRqKkosguyb7Vcf89pP++jR9quP+e0n/fRqKkosguyb7Vcf89pP++jVrT7iZ72NWldgc8Fj6VQq3pn/AB/x/j/KlJKzHFu6OiooorjOsqXX+sH0qCp7r/WD6VBQAUUUUAFFFFAC7jnOTmjJ9TSUUAGTjGeKXJxjJxSUUAGTjGeKMnjnpRRQAuSepNQXVpb3yRrdQpMsciyoHGdrqcqw9wamooAXJ9TRk+ppKKAFyfU0mT60UUAFFFFABRRRQAVjN94/WtmsZvvH61hX6GdQSiiiucyCjJ6ZoooAMn1NGT60UUAGT60ZPqaKKADJ9aXJ9TSUUAHSjJoooAXJ9TWe2iaW2pf2i2n25vMhvOKfNuAwD9cd+tX6KAFyfU0mT6miigAyfWjNFFABRRRQAUhpaQ1pS/iR9RPYKKKK9kgKKKKACiiigAooooAKKKKACiiigAooooAKMgd6KreVHLeTeYithVxkdOtNCLGR6ijI9RUX2W3/AOeKf980fZbf/nin/fNGgE27j7360bv9rp71D9lt/wDnin/fNH2W3/54p/3zRoBNu/2v1o3f7X61D9lt/wDnin/fNH2W3/54p/3zRoBNu/2v1o3f7X61D9lt/wDnin/fNH2W3/54p/3zRoBNv/2v1pAwHf8AWovstv8A88U/75o+y2//ADxT/vmjQCbdzndz9ahe3t5LuK7eNGuIVZY5T95Q2MgH3wKPstv/AM8U/wC+aPstv/zxT/vmjQNSbd/tfrUE1pa3FzBcTQxyTW5LQuwyUJGCR+HFL9lt/wDnin/fNH2W3/54p/3zRoGpNu/2v1o3f7X61D9lt/8Anin/AHzR9lt/+eKf980aATbv9r9aNwPU/rUP2W3/AOeKf980fZbf/nin/fNGgE3Wiq9sqo06qAFEnAH+6KsUMAooopDCiikfOxsDJxwPWk3ZXBEZ8yT7p2r/ADrIlttbs5nuLe8W8i3FjbSLg49FPrWzFIssSup4I/KnkgAknAHesMLS9nepzOTla7e3yWyXoXVlze7a1v61Ky30B043zNsgEZkYt1UAc5+lc3Z6n4p1qw/tXTodOgtJMtbW1yGMkqdiWBwue3BrV1a2N/4W1OC0U7riCURgdyQf51D4S1G1uPB+n3CyIkcNuqS5OPLZBhg3pjFby+KxK2uTaL4itNX0iC+Yras7mF4pWAKSqcMnueKvWep2GoNItne29w0Zw4ikDFfrivLSkE2gWV5djZYX/iVp13cAxNkA/Q4/Kut1aG0svG3h02EcMM7iZZxCAuYAmcsB2BxipUmU4o6L+2NM+3fYf7QtfteceT5o359MetY9h4pa58bal4fniRBAga3kGcycAsD7jIrmVgTQNLt7iS30vWtEe7DxXSHbchmfg5/jIJ7HtUmpWlwdY17V7GNpL3S9QhuERBlpE8oB0/Ff5UnJhyo6S+8TNb+NdO0CGFHWdGeeQ5zHwSoHucE1uC9tDatdC5hNuud0u8bRjrk9K4OygmbxB4f1S7ieO61O8uLhkcYZE8vEaH6KB+Zqpei0j8ZvAGlHhqS9T7WAB5IvMZCk/wB0nGe27FHMw5UemghlBByCMg1c0z/j/j/H+VVKt6Z/x/x/j/Krl8LJj8SOhoooriOwq3X+sH0qCp7r/WD6VBQAUUUAZOKADGaMHOMHNeMeNfH+oXup3Fhpdy9tYwuYy8Rw0pHBJPpnoK5K21C9+Zvttxuz181s/wA6tQbM3USPpTFFcV8O/Ek2sadNZXsxlu7XBDt954z0ye5B4/Ku1qWrOxad1cKKKKQwooooAKKKKACiiigAooooAKKKKACiiigArGb7x+tbNYzfeP1rCv0M6glFFFc5kFFFFABRRRQAUUUUAFFFc94k8SLpBW2gy90yGV9q7vKjH8RHTJPAyQOvpimk27IaV9EdAeBkkAepoGCMg5HqK5eHRdKRrW88QXMl/e3gHlQyO8kag8/Ki8cZGWIA+lXb/wAPW2nwS3ujebYXUS7lSAM8cv8AstEM5B9hkUNK9jf6vK17m5RWfouqLrGkw3oieF3BWSFxho3BwynPoRWhSOfYKKKKACiiigAooooAKQ0tIa0pfxI+onsFFFFeyQFFFFABRRRQAUUUUAFFFFABRRRQAUUUUAFQx/8AH3N/up/WpqaEAkZx1YAH8KYh1FBIAJJwByTVDSNUh1iw+1wfcMjoP+Akj/69Fna4y/RRRSAKKKKACiiigAooooAKKKKACiiigAooooAKKKKAIYP9Zcf9dP8A2UVNUMH+suP+un/soqamxIKKKKQwooooApy2LiVpbadoWbllxlSfpUJ064uJW+13bNCSMRIMA/WtKis6VGFGTlT0v93yWy+RU5uaSl0EVQqhVGABgAdqxrrwjoF7dvcz6ZE0kh3SYJVXPqyg4P4itqitGr7kp22MHxBor6mukRQRQ+Ra3iSyxtgL5YUggD8elXNN8P6TpE0k1hYRQSyDDOuScemT0HtWlRSsr3Hd2sY8XhXQob8X0el263AfeGAOA3qF6A++K0obS3t5554YlSWdg0rgcuQMAn8Kmop2Qrsgms7e4uIJ5oVeaAkxOeqEjBx+FQf2Ppv9mPpv2KE2T5LQlflJJySffPOavUUWC4iqERUUYVRgD2q5pn/H/H+P8qqVb0z/AI/4/wAf5UpfCxx+JHRUUUVxHYVLr/WD6VBU91/rB9KgoAKAN3y5xnjPpRSjg5xmgDxvwn4es2tbue9t455TcPEPMGQApwcfU1qt4e0m1lzDYxDdyc5YfrXRXGkx6TNIsJYxTyNMM9iTyKz7v/WL9K5ak5cz1OulCPKtDM8M+TonjC+dIWML2oOxTjaSw/wrsT4nQu4jsJGCFFJMyryxwOtUdD0mJpJdQmAO9RGFYcEAnn8zVu4stMa9MJggM20MVxzjoD+hoccROSlGVlY46sWpPlZbs9dF1eR2zWbxGRnVW81W5TrwK1qxtPsLOC8WSK2jRwDhgvNbNb01NL33cUb21CiiirKCiiigAooooAKKKKACiiigAooooAKxW+8frW1WM33j9TWFfoZ1BKSlornMgpKWigApKWigApKWigCpqWoW+labPfXLERQrkgdWPYD3J4rye7l1jXHvtRe1DCeUokEIZmOxVG0YBGQG7kZJOK6f4h3bNcadp4PyYa5cepGFX9ST+FYPh3WbrR9Xto1uhFp9zcoLlSoO3OBkE/dydoPtTjU5ZWPYw2XueEeIW9/wW56xsENuJoLYNMsIREJ2kjsue1Z819qOn6Zb3l5BH8gYXSB8hB/C5IHQcbsDgEntWk1yBdvaEbZtm6MNwH9cfQ9a4zUJNYme9bUZ3sbBEJmaaBhEAOvR8PkcADgnGR2pRV9yG7Emj69JbeKLvRdR8rzp2WSOaJso0hjUlc+uMEHvzXXV4jd30t68uqIxErSfaYjxldv3OnHQAce9e0Wdyt5Y290v3Zo1kH4jNF7meYYN4dwl/Mr/AD6k9JS0UHnBSUtFABSUtV7y9tdPt2nvLmK3iH8crhR+tAFikrG07XbnV7GO907QdQubaVQySRy25GD6/veD7Hmrf2rV/wDoVtV/77t//jtbUoSU02huLL1FUPtWr/8AQrar/wB92/8A8do+1av/ANCtqv8A33b/APx2vV549yOSXYv0VQ+1av8A9Ctqv/fdv/8AHaPtWr/9Ctqv/fdv/wDHaOePcOSXYv0VQ+1av/0K2q/992//AMdo+1av/wBCtqv/AH3b/wDx2jnj3Dkl2L9FUPtWr/8AQrar/wB92/8A8dpj6pd289tHe6HqFmlxKIUllMRUOQSAdrk9j2o549w5JdjSoooqiQooooAKKKKACiio5pkt4XlkOEQZJppXFJqKu9jn/GOsLp+izQROBczjy1APIB6n8qzvhtL/AMSm7tj/AMs5tw+hH/1qxfEEjX0n2h/vM5/Aelafw/BS7vk7FFP6mu6dFQotHk4TH/WKia21O8ooorgPXCiiigAooooAKKKKACiiigAooooAKKKKACiiigCGD/WXH/XT/wBlFTVDB/rLj/rp/wCyipqbEgooopDCiiigAooooAKKKKACiiigAooooAKKKKACremf8f8AH+P8qqVb0z/j/j/H+VKXwscfiR0VFFFcR2FS6/1g+lQVPdf6wfSoKAMTxTrdzoGmw3cFrHOrTBJN7YwMdvc1wD+PdQfxENVjiY2yr5ZtPMbyyMf+hd81rfEbTb/b9vN+XsmZUS2JI8ttvUDoc81iTeK4W8K22i2llHEqxBbh3QEs3qPT1z1r0qUYRpKSjzN6aHk1pTqVpRc+RRV1frb/AD7fgdhpniqHWtCvbzUYIbaOOUrAokyzHGcAdcjjnvWW+o2QWO4uZMJuA2LyT61wVoHLtIpwm7867G7ijl8K6XOYEWTzHBYdT/8Ar/pXjZg1CvKMLWS/pH02U0PaYWnOqneTt01Vm7o7C502DVDZ3FtdL5VuQVjxvhYe6+o7HtVK40qa+huzclYp7qUMSV3mNF4ULzwwHOfUmuOtby5spPMtpnib/ZPB+o712/hzWF1kvb3ShbtF3ArwHXvx61NDFxm+V6MrGZXOinOLuvxNLTYfs4ih8x5Nibd8hyze5Pc1qVFHbxxtuAOfrUtdTPMQUUUUhhRRRQAUUUUAFFFFABQTgZPSimyf6p/90/yoAgF/akAiUEHuFP8AhS/brb/nr/46f8Kfan/Q4P8Armv8qlyfWqdhalf7dbf89f8Ax0/4Vjtdwbj+87/3TXQZNYzH5j9a56/LoZ1Llf7XB/z0/wDHTR9rg/56f+Omp6MmsPd7f19xmQfa4P8Anp/46aPtcH/PT/x01PRk0e72/r7gIPtcH/PT/wAdNH2uD/np/wCOmp6Mmj3e39fcBjx+I7J9Uk0996Sq21WIyH/wrYqCOzt4riS4SFBNIcvJjk/jU9VUdNtcit/mJX6nnXxGjki1XT7pVyr28kQ92BDAfiM/lXnrOJ4kknAnaRNwDfcTPYL6+5r2/wATaINd0d7ZGCXKES28h6K46Z9jyD9a8RuIZraWW3nt2hmildGifgqeuPpz1rbCqLm20d1TEyeDjSUrWbuu6f8Akx2s+LNaTSbW3+1XMogYeWRM2/PY5znIFWNSTxVrOkW13NHc3Kh8J51ySykcksmeDgccVe0rwfr2q2dvfWdtFHHndG8ky9Qx5xz3HerXiCPxPp3lWuow2K/biF82KX7xBC59shgD7CtXGnzaMyhXmo8tkc/ZsRb3br9wqMKOhcjnA7ZyK940q3az0eytn+9FAiH6hQK8z0nwld2Vit/eSxO9qftZtFjJWTYx3AtnqMdh2HWvVo5FljSRDlXUMD6g81yVPib7s2xdeM6VKlF35V+LI7m5hs7dp532Rp1OM1R03XbTU0leLciI+0Fxy3HWtMgEEEZB7Gobazt7PzPs8KxCRtzBRgE+tOLp8jUk79Dgd76B9rt/+eo/I0fa4P8AnqPyNT0VHu9h6kH2u3/56j8jXzJr+rXfjvxy8dzdSpA0zRW6Khk8tRnAVB1Jx+Zr6ir5/wDGHw61nQfE0+raRpaarp0rtIIjF5uzdnKsg5wM8EVpScbl099Sl4ev9S+F3xRj0+K9M0HnRw3SKCqyo4HVT/EN34Eda+qdb1FtJ0e4vkiErRAYQk85IHYE96+bPBPhy88X+MrTxL4ovLCysLfy3RHmjjMioAI0RM5CjA5Pb1r6Ku9X8OX9rJbXOq6dJDIMMv2tBnnPUGuk2K1n4st5rZzcRPFcRttdApIBMjRr1wRkrnBGQDVFPGpfT7iVbbzZ0KlAikLsIj+ZsnI5ftnpVo/8IcWRje6aWQ7gTeDJO7dlvm+Y55yc03y/BewILvSwo7C7UZ+7wfm5HyrwfQUAX9S1a50/VYIPKha1eGWZ3LNvURgFsDGD97jntVKXxlZ2+XmhuMNGkkcQQCQhlLc5bHQdOtW7jVPDV1Irz6nprsqPGCbpOFbG4de+BWVqdr4T1IxN/bFjA8QCho7mMnAXaOpOCB0PUUAXZPGmmRSTI0c/7p/LzhcM25lKj5uDlG646e4qUeLLAxGYRXPkiVIfMZAqlmUP1JGOCOuOeOtZdnZ+E7WWd21u0lErl8NeIuG3Ft2VIJbkjPXHFaEtx4Tmt5YH1HTjFK++RReKA5wF5w3IwAMdKAOirlvG7BLfRmY4A1SLJ/4A9aw8RaGBgaxp2P8Ar6T/ABrnvFer6be/2LFaajaTy/2nGdkU6s2Nj84Bqo/EhS2Yfa4P+en/AI6aX7XB/wA9P/HTU2aK7dDiIPtcH/PT/wAdNPSeKVtqNk9ehqTNFGgBRRRSGFcpr2q/apPs0LZhQ/MR/Ef8Kk17V5A5tYHTZ0cocn6ZrBit7m7fy4Imcn+6P6134ehy+/I+XzTMXWbw1Hbr5+SKd4wdQg5wcmum8F6dLbpPdyKVWUBUz3A71NpnhZImWa+IdhyIh0H19a6QAAAAAAdAKnEYhNckTqyvL50rVKmnZf5i1CbqFWIL8jrwamorjPeIPtcH/PT/AMdNL9rg/wCen/jpqbNFGgiOOeKViqOCQMkYqSof+X7/ALZf1qahgFFFFIYUUUUAFFFYfizxRZeEdDk1K8Bc52RQqcGRz0A/mTQ3bUErlvZqmpeIn02xvba0jitFnZpbYyliXK4+8uOlX/8AhGfEP/Qfsf8AwWn/AOO14RZ/GDxdb+KjewaJC0k0CoLTyJCxiBLAg9e55xivfvBfjWz8a+GzqllE0dxETHPaufmjkA+79D2NcsqjvozpjTVtUQf8Iz4h/wCg/Y/+C0//AB2j/hGfEP8A0H7H/wAFp/8AjtJH4jmt9MtLg3sM1xcJunE5CpbuELGPCgEEn5QDzx3qO78V6p9kllitYLf72zzQzFNnllt447Ofpilzy7lckew9PC3iBGcjxBZfO24/8S0+mP8Anr7U7/hGfEP/AEH7H/wWn/47SQeJr4TyosEcsUc+1mLElg0zRjb2xwD9PzpF8aSyxIUjtYiY0Z5ZHOyNzGWKH3yMD/Io9pLuHJHsO/4RnxD/ANB+x/8ABaf/AI7R/wAIz4h/6D9j/wCC0/8Ax2g+MbhldFs4o7kB28maUKyKFjILZwBneepGcda6XTbwX+m292Ok0Yf7pXr7Gjnl3Dkj2OLng1bSNcsLS91C1u4buOZv3dqYmQoFI53tn71aNJ4o/wCRo0D/AK5XX8kpa3pNuOpz1ElLQKKKK0ICiiigAooooAKKKKACiiigAq3pn/H/AB/j/KqlW9M/4/4/x/lSl8LHHdHRUUUVxHYVLr/WD6VBU91/rB9KgoAoaroun61FDHfwmRYX8xcMRzjkfQ14pNbo93I20CPcdqjtzXvRGQR6jFefN8O7ssT/AGjByc/6tqzq1sRBJUm+p2YPD4GbcsUldNNfK/4d0cRHGsQIXpXaXcW3wPpp9HB/MGnf8K6u/wDoIwf9+2roLnQDNokOkrcIJY1Rt5U4IHFccaVaXPKeraPVq4rCw9lGi0op9Ftv/mee1r+F5TF4ksyD94sh+hU1q/8ACCXX/P7D/wB8Grel+D57DU7e6e7iZYm3FQpyeKwp4eqpp2OmtjsNKlKKlun3Otooor1z5UKKKKACiiigAooooAKKKKACmyf6p/8AdP8AKnU2T/VP/un+VAEdr/x5wf8AXNf5VNUNr/x5wf8AXNf5VNTe4lsFYzfeb61s1jN95vrXPX6EVBKKKK5zIKKKKACiiigAooooAK4Hxd4FvNV1KbU9NuYzJIAXtpvlBIAGVb8B1rt7q7trGAz3c8cEIIBeRsAZ6c1MDuUMOQeQauE5Qd0BzPgaK6stDk02+jEVzaTMrJuDYDYYcj6mqfxC0c6rbWDC5EAt2d2bbk7d0YOPcZz+Fa+rwNaXa6hDqv8AZ7zlLdg8AlSRskJkdQeSOtR/2a1zrFrFq+pRXksAaeG2FqEH93ceTnFVGVpc5astSY+H5NskQ1e98iUMJI22HO4ktg4+XOT/AErYVVRAigBVGAB2FOwaKzcm9yW2wooopCCiiigAooooAq/2Zp55On2n/fhf8KQ6Xp3/AED7T/vwv+FW6StKX8SPqD2Kn9l6d/0D7T/vwn+FH9l6d/0D7T/vwv8AhVuivZMyp/Zenf8AQPtP+/Cf4Uf2Xp3/AED7T/vwv+FW6KAKn9l6d/0D7T/vwn+FH9l6d/0D7T/vwv8AhVuigCp/Zenf9A+0/wC/Cf4U+OwsoZBJFZ20bjoyQqCPxAqxRQAUUUUAFFFFAFae+ht5REwkd9u4rGhYhfU46VHeWouYmLXE4j27vLiwCR/M1BqOxbjzEF3FchMJLDGXDf7JHQ8+uOvWseGOW508f6NINR82UyOqnAHzZG7oR2x61vCGnMjlrWneE1dGxb6FpyKr+QzEjOJG5H4VoxxxxJsjVUUdlGK57+z5hpzyeRJ9qFwNp53BcAHHt1p8lq9qsDx2hYPbKs+VLc7l5YDkkc8U5Jy3lcmlTp0fggl6G39oT7V9n53eX5me2M4qbIPeuUhsb/7XdmKNhbAZCtGU8xcg7F9M806OzmltY1KypcAr5qrCylgWGctnB45pOku5oqsux1I5opscaQoI41CovAUDgU6sDcKKKKBkP/L9/wBsv61NUP8Ay/f9sv61NTYgooopDCiiigAryn452F1PoWmXsW7yLa4YSkfwbgMMfyx+NerVHcW8N3byW9xEksMilXjcZVh6EUpK6sOLs7ng0virRDdceIZ/Om0i3s2v0gl3RyRSKzZz8xDAEZH416L8K9QZIfGfjAW0o028vA9tGQFMm3OT6fxD8c1Hpfwm8HXXjaeGXT3+zx2iXAh89gm4uwPfOMAcZr1iTR9PfRDo8cS29l5flrHBhNi+3pXG1Z2OtO6uVR4ksIZJIL8fZLlJArxMN3YENkfw4I57UyfxXpiPEI5A6vL5bswKBVw2XyRyAUI4p7+GNNlnS4lMktyrl2mkYMz5AGDkYxhR0Axiq0Pg/TvICXkkt0wLYLPgBSWO0D0+c0hl9PEOlNkfaNjKMlHjZWHK9iM/xL+dRxeJ9FmkEa3I5I5aJlXknByRjBKtz6ioZPC1m9zZzmeR3t7kXDvI25pCE2qCeOBhTjH8IqUeGdLEKwlXaNVRdpk6hWZgD+LtQADxRorIG+05D5B/dNkAbeTxwMOpyeMGr2m6lBqlu81ukqokrxESRlTlSQcZ7ZFZ8PhfS4bbyFD7PKeL7wB2ttz0A/uLzWlZWcNhHJHC7FHkaXazZ2ljkge2ST+NAHN+KP8AkaNA/wCuV1/JKWk8UEHxRoGD/wAsrr+SUtdNH4Tmq/EFFFFamYUUUUAFFFFABRRRQAUUUUAFW9M/4/4/x/lVSremf8f8f4/ypS+Fjj8SOioooriOwqXX+sH0qCp7r/WD6VBQAUUUUAFV/wDmI/8AbH/2arFV/wDmI/8AbH/2amhMsUUUUhhRRRQAUUUUAFFFFABRRWK2q6rcapfWmm6RFcpZuiPJLeeVlmQPwNp4wwoA2qKyftHib/oX7T/wZf8A2uj7R4m/6F+0/wDBl/8Aa6ANamyf6p/90/yrL+0eJv8AoX7T/wAGX/2umtN4nZGX/hH7TkEf8hL/AO10AaVr/wAecH/XNf5VNWNDJ4nihjjOgWh2qFz/AGl1wP8ArnT/ALR4m/6F+0/8GX/2um9wRrVjN94/Wn/aPE3/AEL9p/4Mv/tdUTB4oJJ/sOz5P/QR/wDtdYVYuVrETTexaoqp9n8Uf9AOz/8ABj/9rqKG81CPWP7N1LT47aU25uEaO480EBgpB+UYPNYunJK7Rm4tGhRRRUEhRRRQAUUUUAc/4p03U9Ys20+1EAtpgvmO5IZWDqc+4wD+OKqT6LrEt1qbtdzMZPN+yMk+xQrR7VVh1G0jII+tdXRVKTQ1Kxwtx4d1v7K8XnDDPZOhkmMm2RP9Y2D6nH1qxcaN4hntiodYpjp01uxjuWCtMWBWQen9M4rq7r/VL/10T/0IVPVc7tcfMzjZNB1zZdpBdSRBpYpYczbxkRYYMD1Bbnr711dkk0VjbpcbfOWNRJtJI3Y5wTz+dT0VLk2Ju4UUUVIgooooAKKKKACkNLSGtKX8SPqJ7BRRRXskBRRRQAUUUUAFFFFABRRRQAUUUUAFMiiSFSsahQWLED1JyafRQIKjVyZ5E7KFI/HNSVDH/wAfc3+6n9aaAmooopDCiis61TW9W1LUYdPl0+GGzkSP/SI3ZmJRXzwwH8WKUpKKuxxi5OyNGio/7C8U/wDP7o3/AIDy/wDxdH9heKf+f3Rv/AeX/wCLqPaxL9lIb/y/f9sv61NUH/CPeKPO8z7do+du3H2eX1z/AH6f/YXin/n90b/wHl/+LpurEXspElFR/wBheKf+f3Rv/AeX/wCLo/sLxT/z+6N/4Dy//F0vaxH7KRJRWbq9v4j0TTJNQnn0qaKJk3okMisQzBeCWPrWkeDVRkpbESi47hRRRVCKN7o2m6jMs15ZQzyqu0O45A64+lVv+EX0L/oF2/5H/GteilZBdmT/AMIvoX/QLt/yP+NJ/wAIvoX/AEC7f8j/AI1r0UWQ7sw4fDOiM84OmQHEmBwePlHvUv8Awi+hf9Au3/I/41owf6y4/wCun/soqam4rsJNmT/wi+hf9Au3/I/40n/CL6F/0C7f8j/jWvRSsh3Zn2mh6XYXAuLSwhhmClQ6jkA9RWhRRTsIKKKKACiiigAooooAKKKKACiiigAq3pn/AB/x/j/KqlW9M/4/4/x/lSl8LHH4kdFRRRXEdhUuv9YPpVH7Zaf8/UH/AH9X/Gl8Q3ENrpV3LPNHCggcb5HCjO09zWL4S0jwrqfhjTZILDSLqQWkQlZIo3IbYM7sd8560AbP220/5+oP+/q/40fbbT/n6t/+/q/41BNovhSC6jtpNI0wTScqgtFJxnGTgcDPc0+40Dwva2stzNo+mLDEpZ2+zIcADJ7UASfbbT/n6g/7+r/jUH2y0/tH/j6g/wBT/wA9V/vfWpf+Eb8NeUZP7G0zYF3E/Zk4GM56VBY6R4R1KNpLTStLkVcbv9FUEZGRwRnkHNNMCz9ttP8An6g/7+r/AI0fbbT/AJ+rf/v6v+NRTaD4Wt5Ikl0jTFaV/LQfZU5bBOOnHANTf8Ix4cBIOi6ZkDJ/0ZOB+VIBPttp/wA/UH/f1f8AGj7baf8AP1b/APf1f8agh0XwncLGY9K0o+Y7ogNsgLMhIYAEc4INWF8L+HWGV0TTSPUWyf4UAKlzbyMFjuInY9AsgJqWsDXNE0rTtR0Cay020tpTqIUvDCqHHlycZA6Vv0AFFFFAHOeMvGml+CdIF9qJZ3kOyCCP78re3oPU15LoX7QCWWvX9xeaERaX0yO3lTZeMKip0Iwfu57VX/aJhuhr+jzMGNobVkjPYOGy344K1yviJ/DTfDfToNIu7Z7q3uwHBgKTuTGC5YnkruJx24HegD6d03xQmvRSXujvBLp8UKymRs7pNylsD0x0Oe+R2qRvFEcFpYzTWsrGe0W6lMeNsSkqD1OTyw6VwfwG0cN8PI7q9tgS91KbdmHJj4H4jdv/AFr0mfRdLa4t7qeFALSLyogxwiLkHp/wEUAZ9t4wtr2aKK2s7mRppvLiOAAwwx3ZJ44Q8denrUOmeLWmtI5b21dWZgZCmNsSvIUjB5yckdq1oLfRonhkhFoGkkLwlWHzNgglefc9PWoRD4e+2WsS/YvtADCBAwz8pycDvgtn2zQBTXxhG6WzLpt2ftEUcqjKZCyNtTPPc/lVmz8TW99N5UcEsbG3My+bhd2OoHrjuRSpN4fa0int/sk0aoqRCIqTtRuAo/2T+VSJHoNrK8yvYxvEDEzeYo2Z6g88ZoAx9J8aNcW+7ULUxytD56iNSuU8rzDwx9iAe+O1Pt/F7y6lLbrA0wPywIqhWZtz5BJOMBUzmtH+yvDaWz25gsRDGVLKWHy5GADzwMcAelWm0PSpFbNjAQ5BJC9eSev4n8zQBT8OeIRrdugkiMVwsEcjg8btygkqM525PBrJ1v8A5Hy3/wCwW/8A6NWuotNLsbBy9raxwsVCZUYwo6Aeg9q5jW/+R8t/+wW//o1aip8LJlsTUUUVxmAUUUUAFFFFABRRRQBBdf6pf+uif+hCp6guv9Uv/XRP/QhU9U/hQBRRRUgFFFFABRRRQAUUUUAFJ2paQ1pS/iR9RPYKKKK9kgKKKKACiiigAooooAKKKKACiiigAooooAKhj/4+5/8AdT+tTVCn/H3N/up/WmhE1FFFIZzHjXxrY+C9MS4uEM9zMSsFupwXI6knsBXmmgfHq/0rVry4udGt5bW8mWSVI3YOmFC/KTweFHWk+PFjdDVdLvyrG0MBhB7K4Ykj8QR+VYvifXNJvPh9aWgFsL8vb+TBbyiQQIkZDnhAULEjKkkk5Nc1WTbsdFKKSue+2njFddJ1PRtQaSF47ZrW02r+9LMwkUjGcjHODxiph40v2gSR7W1txI7BTM54wjNsIBzuyoHbr0rH+Aum3dh8NopLtGUXNzJPAGHIjIAB+hIJ/Gu41i7+xXWnldOS5aWfyo3MgUo5U89PQGsjUwLTxRqKvKjwje05KRT53sGcKI0x3XOTT28X6jLbtJb2EIMfnK4k3ffhTc6jH+18oNbaeJtHllWNLnfIZAiKsTEsTnleOR8rcjjg1Us/EmlRjZFC8ETM21DC4d3MhU4ULzlgec0AU28Vail/HZmwiL+aVdw21WHy8LkjnDZ79KLfxHqtxdackiWsEc8kTSEqxGx0chckjDZQc+4ratvEGl3l5BbW8xlklXehETbfuhvvYwDgg4681qbR6CgDnfHf/Im33+9F/wCjUqsepqz47/5E2+/3ov8A0alVj1NdFHZmFboJRRRWxiFFFFABRRRQBDB/rLj/AK6f+yipqhg/1lx/10/9lFTU2JBRRRSGFFFFABRRRQAUUUUAFFFFABRRRQAUUUUAFW9M/wCP+P8AH+VVKt6Z/wAf8f4/ypS+Fjj8SOioooriOw+RPi54pvPEnxBvbG4umi0+wuDbQxnOxNpwzkDqScn6cVkx3epfDPxyr6dfmV7fy3ZkBVZkZQ21lPYg45r034sfCfU38TT+JtAt4r2GY+fdWjkAqw+8QCRuU4yRnPWs3Qvhn4m+IPiO01zxHp1tpmmlI2dolCNcIANoVck8rgZOOKAPehZXF3PLqFnMkcWo2saybwd8eA2CpHfD9D6VjzeCriW0eLzrMb4jF5XlExDMezzMZ+/3/wA5rs1VURUUAKowAOwpaAOc07wy9jc38z3PmNco6K564Y5wR3x0HXj0qtceD2FhDFZXCpcC2e3mlmLPvDRhM9c8YGB0p+sy6jFq0rrFcyqBD9kjj8wI3zHzMlOjDg/Nxj8azLUa9PLbxvJdW48+F1QQHbGuJAxyevOOCe4oA0T4QaS6kaaSBrZpzN5LJuySrgkk89XBxyBjioI/BdwjSO96s0hWPBkzhtvl5Rh3Q7PU9enrBdar4hutLmt3s50uJYSf3du/ANvng9j5mRjOe1dLoVxeXFpKbvewWUrFI8RiZ0wOSp6c5H4UAZR8JudOsrcS26S27XBDpHgIJd33PQruGPpWpoelSaXHOHMK+a6sIoF2xphQvA9TjJ+tatFAHO+Kf+Pvw/8A9hNf/RUlaFZ/in/j78P/APYTX/0VJWhQAUUUUAZPiLw3pfirSn07VrYTQE7lIOGRv7ynsa8y8PfAnw1P4h1NLu7vri2sZ0RISyrvDRq/zEDP8WOMV7HWNP4eWTULm8g1TU7N7kq0qW0wVWKqFBwVPYCgDpbS0t7G0itLSFIbeFAkcaDCqo6ACqfiCwl1PQbyyg2ebNHtXf8Ad696xf8AhH5/+hj1z/wJT/4ij/hH5/8AoY9c/wDAlP8A4igCT/hEMzSSG7TM77pgIeBiTePL5+Tng9c1PpvhptOvLedbpGELSBY/LOFRwvyqSSRyueSepFVP+Efn/wChj1z/AMCU/wDiKa+gTqjEeI9cyAT/AMfCf/EUATDwcnkSxm5TLQeQjCEAqvmmT1684/CuebwXrBtzGVhb5yWJcZcFXG0/7Hzf73JrZg0K4kt4nbxHrmWQE/6Qnp/uVJ/wj8//AEMeuf8AgSn/AMRQA+HwZGtx5806u32hbjBUt/HvK8nGM9DgHFdTXJ/8I/P/ANDHrn/gSn/xFZx0y8DEf8JHrXX/AJ7p/wDEVMpqO4nJLc72uN1v/kfLf/sFv/6NWqf9m3v/AEMetf8Af9P/AIinWulfZ9QN9Nf315P5XkhrmQNtXOcDAHcVlOrFxsiJTTVjQooornMgooooAKKKKACiiigCG6/1S/8AXRP/AEIVNUN1/ql/66J/6EKmqn8KAKKKKkAooooAKKKKACiiigApDS0hrSl/Ej6iewUUUV7JAUUUUAFFFFABRRRQAUUUUAFFFFABRRRQAVDH/wAfc/8Aup/Wpqhj/wCPuf8A3U/rTXURNRRRSGVdQ02y1ayks7+2juLaT70cgyD/APX965bwj8KPB0mu6tLNpZnFncosMcsrMgBjVuRnnknrmuzrMudA026u5LqWGQTS43tHPIm7AwMhWA6ConDmRcJ8rO+RFjRURQqKMKqjAA9BUN1Zw3bW7Sgk28omjwcYYAj+RNcH/wAIzpf/ADzuf/Ayb/4qj/hGdL/553P/AIGTf/F1l7FmvtkdOPCWlrataqjrA0gfYpA6HIGcZxz16+9TR+GtPjukuAJS8b70Bk4X5y+B7biT+Ncb/wAI5pn2vZsudvl5x9sm65/3ql/4RnS/+edz/wCBk3/xdHsZB7ZHQ6d4Si0vXPt9tcFY9u3yyuWK7QoUnOMcZ6Z966OvO/8AhGdL/wCedz/4GTf/ABVH/CM6X/zzuf8AwMm/+Lo9iw9sjofHf/Im331i/wDRqVWPU1jHwxpDY3wTOAQ217qVhkHI4LYPIrYrSnBx3Mqk1LYKKKK0ICiiigAooooAhg/1lx/10/8AZRU1Qwf6y4/66f8AsoqamxIKKKKQwooooAKKKKACiiigAooooAKKKKACiiigAq3pn/H/AB/j/KqlW9M/4/4/x/lUy2Y47o6KiiiuM7DO1aJprW4iT78kLKufUgisDSNW1vTtGsbKTwxcs9vbxxMy3cOCVUAkfN7V0t1/rB9KgoAzf+Ei1j/oVrr/AMC4P/iqP+Ei1j/oVrr/AMC4P/iq0qKAM3/hItY/6Fa6/wDAuD/4qm/8JLq3m+X/AMItdbtu7/j7g6dP71alV/8AmI/9sf8A2amkJlX/AISLWP8AoVrr/wAC4P8A4qj/AISLWP8AoVrr/wAC4P8A4qtKikMzf+Ei1j/oVrr/AMC4P/iqP+Ei1j/oVrr/AMC4P/iq0qKAMC9udW1nUNJEmhTWcNteCeSWS4iYBQjjGFJOcsK36KKACiiigAooooAKKKKACmyf6p/90/yp1Nk/1T/7p/lQBHa/8ecH/XNf5VNUNr/x5wf9c1/lU1N7iWwVjN94/WtmsZvvH61z1+hFQSiilwfSucyEoowfSlwfSgBKKMH0qt5Ilupd+8hQuAGIx19KaVwLNFQ/ZIvR/wDv43+NH2SL0f8A7+N/jR7vcCaiofskXo//AH8b/Gj7JF6P/wB/G/xo93uAXX+qX/ron/oQqaofskQIO1jg5GXY8/nU1DatZAFFFFIAooooAKKKKACiiigApDS0hrSl/Ej6iewUUUV7JAUUUUAFFFFABRRRQAUUUUAFFFFABRRRQAVDH/x9z/7qf1qaoY/+Puf/AHU/rTXURNRRRSGFFFFABRRRQBD/AMv3/bL+tTVD/wAv3/bL+tTU2IKKKKQwooooAKKKKACiiigAoopDnacDJxwPWgCKD/WXH/XT/wBlFTVh6JrL6leXcX2N4RG2XZmzg8DH6GtyqnFxdmJO60CiiipGFFFFABRRRQAUUUUAFFFFABRRRQAUUUUAFW9M/wCP+P8AH+VVKt6Z/wAf8f4/yqZbMcfiR0VFFFcZ2FS6/wBYPpUFT3X+sH0qCgAooooAKqSSxw6gDI6oDDgFjjPzVbowD1FNOwmQfbbX/n4j/wC+hR9ttf8An4j/AO+hU20eg/KjaPQflRoGpD9ttf8An4j/AO+hR9ttf+fiP/voVNtHoPyo2j0H5UaBqQ/bbX/n4j/76FKt1buwVZ4yx6AN1qXaPQflUF0BmDgf65e31pqzDUsUUUVIwooooAKKKKACmyf6p/8AdP8AKnU2T/VP/un+VAEdr/x5wf8AXNf5VNUNr/x5wf8AXNf5VNTe4lsFYzfeP1rZrGb7x+tc9foRUEPQ/Ss/wn4T0fVPCmmX13HczXM8CvLJ9tmG5j1PD4rxL4g+KtY8S+Nz4W0u6a3tUuBaKquUEshOCWI5xnjHtXO6X4k1/wCG3iSMWeqrcLEQZrdHcwuM8qQwHPuBTpQsrscI2Pqc+BfDygk21wAOpN9P/wDF0i+BvDrqGW3nZT0IvpiP/Q6t3Uh8Q+DnlsRn7fZb4Qxx99cjP51lnQtXsL62SwunFoWMsvlqqgSFhkbdwAUqMd+cnrzWtkXYsN4J8NLKsbQzCR8lVN/Nk464G+nf8IH4eBJ+y3GT1/02f/4us4aFrUf2S7MtxJdpYJFOxucsXMimQLzgErnB6VL/AGb4ikiuCbm5QmNFt1+0DKjziW3HuwjwM80WQWLh8C+HgCTbXAA7m+n/APi6RfA3h11DJbzsp6EX0xH/AKHVdtI1o6fqds8006T2s8cayzBvmLt5fXp8hHP51Ts9K8Q2EDpaxyrFKW2p5kashLRncwB2jhZANvqPWiyCxor4M8MOrMqSsqDLEahMQPr89SDwL4eIyLa4I/6/p/8A4usOTQPEH2a+Ro3YXSMjLDOqFm2sEJP90Z5Hv0Nd5boY7aJG4ZUAP5UWQWOG8SeGtM0W1sbywjuIp/t9um43crAqzgEEFiCCK0am8cf8giy/7CVr/wCjBUNc9bdGVTcKKKKxMwooooAKKKKACiiigApDS0GtKX8SPqJ7CUUUV7JAUUUUAFFFFABRRRQAUUUUAFFFFABRRRQAVCn/AB9zf7qf1qaoY/8Aj7n/AN1P6011ETUUUUhhRRRQAU2SRIl3OwUe9DMxdIokMkznCIO/+A9629P0eO2InuCJrr+8R8qeyjt9etTKSirscYuT0MOCzvbu+HlQiJTFkPPkZGeoHX+VaieH5CMzX759I0Cj9c1pf8xYf9cD/wChVarKVaXQ2jSj1Mf/AIR2Dvd3f/fY/wAKP+Edg/5+7v8A77H+FbFFR7Wfcr2UOxj/APCOwf8AP3d/99j/AAo/4R2D/n7u/wDvsf4VsUUe1n3D2UOxj/8ACOwf8/d3/wB9j/Cj/hHYP+fu7/77H+FbFFHtZ9w9lDsY/wDwjsH/AD93f/fY/wAKP+Edg/5+7v8A77H+FbFFHtZ9w9lDsY//AAjsH/P3d/8AfY/wo/4R2D/n7u/++x/hWxRR7WfcPZQ7GHF4Ws4WkaOe6VpW3uQ4+Y+vSpP+Edg/5+7v/vsf4VsUUe1n3D2UOxj/APCOwf8AP3d/99j/AAo/4R2D/n7u/wDvsf4VsUUe1n3D2UOxj/8ACOwf8/d3/wB9j/Cj/hHYP+fu7/77H+FbFFHtZ9w9lDsY/wDwjsH/AD93f/fY/wAKP+Edg/5+7v8A77H+FbFFHtZ9w9lDsY//AAjsH/P3d/8AfY/wo/4R2D/n7u/++x/hV3U9StNH0y41G/mWG1t0Mkjt2Arya11j4gfE6R7nQZ08N+HdxWK5kTdPOAeo/wDrYHuaPaz7h7KHY9LPh6PHyXtyD7lT/Sq8uiX0QzDNFOP7rrsP5jIriX+GvjixXz9M+I97JdDnZdRkxsfQ8n+VXPCPxB1WPxGPCPjazjstaIzbXEf+qux7ds/Tr7Himq0wdKJts7RS+VPG8Mp6K46/Q9DT66i4tobqExTxrIh7MK5y+sZNLbcWaS0JwHPWM+jeo9/zraFRS06mM6bjr0IqKKKsgKt6Z/x/x/j/ACqpVvTP+P8Aj/H+VTLZjjujoqKKK4zsKl1/rB9Kgqe6/wBYPpUFABRRRQAUUUUAFFFFABRRVPVtSh0bSLvUrgMYbWJpXC9SAOg96ALlZWr6vp+nSW8d5dJCxkDgNnlR1NYXh34n+GvETeUl0bK5xnybvCZ+jZwfzo13W/BmqSWqXmv6cHt5g/EwOR3XjseKuny83v7Ezvb3dzsI3WWNZEOVYBgfUGnVzOqfEDwvpOni7l1e3mRuES2cSOx9AB/XFS+EfF9j4y0+e8sYpolhl8pkmxu6ZB4+tQUdDRRRQAUUUUAFNk/1T/7p/lTqbJ/qn/3T/KgCO1/484P+ua/yqaobX/jzg/65r/Kpqb3EtgrGb7x+tbNYzfeP1rnr9CKh8/fEfwdqOieMZPENpZS3enTzC4byiwMb9WBK8rzyCKzYdK8RfFXXtPhtNMlhtreFbf7RIWcRxgklnkbljyf0FfSR6Gs7wr4r0vSvCum2F2l/HcwQKkiDT5zhh15CYNOlO6sxwlfc7PTbGLTNLtLCDPlW0KQpn0UAD+VWq5r/AITvQ/XUP/Bbcf8AxFH/AAneh+uof+C24/8AiK1uiro1tblng0S8uLabyZoYWkVtoblQTjBrBHii7t5fsn2RryWO3WR5Syx7mZN4x2x2+tWD460JlKt9vIPBB0245/8AHKibxp4bkclo7tmC7TnS5ydp7fc6UXQXRD/wmFztnuFgtpLZIYnGHYMNxcOSCMkDZ2Ga62GVZoI5VOVdQwI9CK5dvGHhplCtBdEAbQDpU/A9P9XU3/Cd6H66h/4Lbj/4ii6C6Olormv+E70P11D/AMFtx/8AEUf8J3ofrqH/AILbj/4ii6C6E8cf8giy/wCwla/+jBUNZ3iPxJp+t2tlZ2KXrzfb7d8PYzIAquCSWZQBge9aNc9Z6ozqbhRRRWJmFFFFABRRRQAUUUUAFIaWkNaUv4kfUT2CiiivZICiiigAooooAKKKKACiiigAooooAKKKKACoU/4+5/8AdT+tTVDH/wAfc/8Aup/WmuoiaiiikMKa7rHGzscKoyTTqdawC71K3gIyinzZB6heg/PH5UbasPQ19GsDbwm5nXFzMMkH+Bey/wCPvWpRRXHKTk7s7IxUVZFU/wDIWH/XA/8AoVWqqn/kLD/rgf8A0KrVD6AgoooqRhRRRQAUUUUAFFFFABRRRQAUUUUAFFFFABRRRQAVS1bVrHQ9LuNS1G4WC0gXdJI3b/E+1Xa8m+ObGa08MafO5XTrvVUS7OcDbxgH82P4UAYfiHXfEXxftbfStD8O3dt4de6Rp7+dwnmoDzgenfjPQV7dZ2kFhZQWdtGscECCONFGAqgYAp8EEVrbxwQRrHDGoREQYCgdABUlAAenFeMar4A8ZfEXxAbvxLeQaLY2EzCyjtFDy4z98N15wDkn8BXs9FAHjOq+C/GPgGzfXPDXii+1WO2HmXNhfkuJEHXHPp9DXpPhTxFZ+M/Ctpq0CDyrlCJIm52MOGU/jWxdPFHaTPOQIVjYuW6bcc5/CvMPgGH/AOEGvXH/AB7PqUxt/wDdwv8AWgDqJ7ZtPvGtCSY8boWPdfT6j/CkrY1+DzNP+0KP3lsfMH+7/EPyrHBBGR0rshLmjc5Jx5ZWCremf8f8f4/yqpVvTP8Aj/j/AB/lRLZij8SOiooorjOwqXX+sH0qCp7r/WD6VBQAUUUUAFFFFABRRRQAVx/xP1O003wDqSXZYm7T7PEq9Wc9PwGMn6V2FeRfHoSf2Tozc+UJ5M/XaMf1oA8O+tGK9m8N/Drw9Y+GINU8RI0806LIRuICBhkKACM8dTXQN8MPCLNuGmnB5G2Z8EfnWTrRRuqEmj55wK9i+BmuWsM9/okilbm4P2iN88OFGCv1HWt6f4eeCmmTTjZmK6mQmMpI2R+OevBrgvCeiT+HvjRZaX5hk8mZsOON0ZjJBP4GqjNSInTcNz6LoooqzMKKKKACmyf6p/8AdP8AKnU2T/VP/un+VAEdr/x5wf8AXNf5VNUNr/x5wf8AXNf5VNTe4lsFYzfeP1rZrGb7x+tc9foRUEoyfWiiucyDJ9aMn1oooAMn1NZ9tqdlPqM0MV1G8pwAoPPGc1oVm2uj29rq11qCffnAGMfd9fzrWnycsube2gnfSxpZPrRk+tFFZDDJ9aMn1oooAMn1ooooAKKKKACiiigAo/GuZ8ceMLfwZoX22SLzriVvLt4c4DNjOSfQV4rP8QPFV3eRa5qWjW17Yom1UuLEmAKWHQ+ueM5rSFNy1KjFs+j8j1FGR6isnwPbeC/G/hmDV7Xw7YxMSY5oTECYpB1Ge45BB9DW9P4R8HWoU3GkaXCGO1TIirk+gzV+w8yvZ+ZXyPUUEj1FWpPBnhKEKZNE05AzBQWiUZJ4A+pp58D+FQCToOngDv5IqoUuWSlfYPZ+ZRyPUUZHqKmt/Cvgq6Dm20vSZgn3vLVG2/XHSpo/BfhOaJZY9D050cZVliBBHrXb7byJ9j5lPI9RRkeoq9/wg/hb/oAWH/fkUf8ACD+Fv+gBYf8AfkUe28g9j5lHI9RS1d/4Qfwt/wBACw/78iuc8PQx21neW8KCOGLULpI0XoqiVsAe1XCpzOxM6fKrmtRRRWhmFFFFABRRRQAUUUUAFQx/8fc/+6n9amqGP/j7n/3U/rTXURNRRRSGFX9BTde3kp/hVIx+pP8AMVQrS8Pfevv+uq/+gCoqfAyqfxo26KKK5DrKp/5Cw/64H/0KrVZZ1Gy/tsRfbIPM8ops8wZ3bumPWtSqkmrXEmFFFFSMKKKKACiiigAooooAKKKKACiiigAooooAKKKKACud8beEbTxr4Zn0i5cxMxEkEwGTFIOjf0Psa6KuQi8U6pqLavdadZ2g0zTJZYGknlbzJXjXLFVAxgHjk889KAOPsfEXxQ8KWyaXqXhP+3hANkV9azYMijpu4POPUCrX/Cx/Hf8A0TK+/wC//wD9jXR6d8Q9NksNOa/8xbieC3e6eGFmht3mA2Kzfw5J4/DNXD490FbaO4kuJY4XS5k3vGQAsBxJn8enrQByH/Cx/Hf/AETK+/7/AP8A9jR/wsfx3/0TK+/7/wD/ANjXXeGPFT+Ita1m3FrJBb2XkeUs8LRynem47gfwxiqcHxAto5byK+tJ/NTUbmyt47SJpWlEKhicDocE/lQByF9D8S/iNGdNurCLwvokvFwWffPIvdfXn6CvUNA0Oy8N6HaaRp8ey2tk2LnqfUn3Jya5OX4kQDXGaON/7Bh0pdRku/s7M0iuTjbyMAY7gknI4xW1D430ySfT43ttRt1v3EcElxaPGpc52qc9CccUAdDLGJYXjIyGUqfxrj7Uk2seeoXB/DiuzrjLX/UD/eb/ANCNdFDZnPW3RNVvTP8Aj/j/AB/lVSremf8AH/H+P8q0l8LM4/EjoqKKK4zsKl1/rB9Kgqe6/wBYPpUFABRRRQBHPMIIt5Vm5AAXqSTio/tEv/PnN/30v+NF7/qF/wCuif8AoQqxVaJC6lf7RL/z5zf99L/jSieUkD7JKPfcv+NT0UrrsFiq9rJIzEykAnpkn+tc14y8J2vijQ5dHN6qXwHnW4dxkMOhI64PIzXX1z3inw2ut2f2i0KwaxbDfZ3Q4KsOdpI/hPQikM5HS9YtbfRYPD/jK1ewurUKm6fKxS7eFZZBxyOoron13TGeIw6lZGPPzbZ0IxjgdeP/AK1c1rXxG1e00K6tr7wnfRaikRDyPFugQ4+/nBBHevE5NGPl3E87qXFot5wM7t7KMH/vrNYyop9TojiGlqj6HvNf8MWt4l/Le20t7EhSMQSeY5B7BFzk8msnwh4Wv9T8X33jHV7eWyE3yWVu/EgXAG5h24HT3NZfwUE9je6xo86xssMcVxGwUZXeM8HrggjivYaqFNRIqVXMp/YmU5Wdvxz/AENS7ngiUFHlb/YOf51PRWhkV/tL/wDPpP8AkP8AGj7S/wDz6z/kP8asUU7rsKxX+0v/AM+k/wCQ/wAaa9w7IwFpPkgjoP8AGrVFO67BYjt1KW0SMMMqAEe+KkooqRhWM33j9a2axm+8frWFfoZ1BKKKK5zIKydd8R6d4etxJey/O33Ik5d/oP61Z1bUotI0q5v5vuQoWx/ePYfia8B1PUrnV9QlvbyQvLIc+yjsB7Cu7BYP27bl8KKjG56LY/EDVdd1mKx0yxt4Uc5Z5iWKqOpOMCrevePJ/D2u/YntEuIAgZiG2uCSfwrgfCM91Br8bWixvIyMpjd9u8dwD69/wp/jK6uLzXFlvIYIroQIsoibcCw7n07cV6n1Kl7Tl5fdsVeN+Xqev6F4k07xDbmSyl+dfvwvw6fh6e9a9fOmm6ldaTqEV7aSFJYzn2I7g+xr37SNSi1jSba/h+5Mm7H909x+deXjcH7Bpx+FkyjYu0UUVwkhRRRQAVBdZ8jAJGXUcHBwWFT1Bdf6lf8Aron/AKEKqPxIGL9lj/vS/wDfxv8AGk+yx/3pf+/jf41PRRzS7hZHk3xv0G5udCsdRtVlkis5GE67i21WAw30yMfjXli6/HaeAJNIgu55Lu+uQblGLbIoI+UQZ4+ZiWOP7or6rZVdCjqGVhgqRkEVyc/w90UaxHqen2llZzKpBVrNJULZzu2twCK1hVsrSNISSViT4BaBe6N4Flub2N4jqFwZ4o3GCECgA498E/TFdl4s0W61mO1W3GQnmq4EgQ4eMr1IPGTzWSG8SAADxGoA7f2fH/jS7vEv/Qxr/wCAEf8AjWntYlc6C78O+I7ySUfbIYBiPY8bsVDI6kOFOcHAPpWppWk6rBrX2q7nYQeWFWJZi6gbVG055OCCc+9Ze7xL/wBDGv8A4AR/40b/ABL/ANDGP/ACP/GnGpGTsg54mkmgXi3IIcJEb6e5dY5Cu5WUhM464bBxXMtYeJIJJkdbuWVESNZFeQpgGLcWx94EB8bfm5atPf4l/wChkX/wAj/xo3+Jf+hkX/wAj/xrf2Uhe1iMttB16eyDLdXMObUxxB52DK21h82eeSQwPUceldvbQi3tYoVzhFA5YsfzPJri9/iX/oZF/wDACP8Axo3+Jf8AoZF/8AI/8aPZSD2sTua870iBHGosS+TqV10cj/lq1W9/iX/oZF/8AI/8aNMsX0+1eOS4NxLJNJNJKUCbmdix4HA5NaUoSi7kVJxkrIm+yx/3pP8Av43+NJ9lj/vSf9/G/wAanore7MLEP2WP+9J/38b/ABpPssf96T/v43+NT0UXYWIfssf96T/v43+NJ9lj/vSf9/G/xqeii7CxD9lj/vSf9/G/xpPssf8Aek/7+N/jU9FF2FiH7LH/AHpP+/jf406OFIixXdlupLE/zqSii7AKKKKQwrS8Pdb7/rqv/oArNrS8Pdb7/rqv/oAqKnwMqn8aNuiisy6ubm4vDZWTBCozLKRnb7D3rmjHmOmUlFFE+Fbb/hMP7d+X/V/cx/y06bvyroaym06+hXzINRlkkHO2XlW9vap7TVIJ7cNK6QyAlWRmxhhVz5pJO97aERai7NWuXqKQEEAggg9xS1kahRRRQAUUUUAFFFRXNwlray3EpxHEhdj7AZoBu2rMHxX4vtPDNuFI868kGY4Qf1b0FeeaXrev+LvEMEM8l09kXHnRWjGNY1PckdvrXL6rqNzrurz3soZ5ZmJVRztHYD6Cr3hu5utI1y2unW+it1cGUQxnLgdiO4r2oYaNKm/5rHy9XHzr11e6hf8Aq56Ra2WiG6Tw3b6zqAv7WUzMyykM57qWxzx27Vk2fj3UdE1mTT9ftpRbbzseQfvUTJwT/eHvV1fEegWxTxGui3C6hcSGKQAZdB3cjOMY745rPk0rRkt4L/XXvp59TZ7eFt6y7QWyr8cKQCOBnHNc0UtqibT++/Wx3TlLR0ZJNfdbpe/U9NgniuYI54JFkikUMjqcgg96krkfCu7RtXvfDjEm3iAmtC0odinAbOOnPOPeuurhqQ5ZWWx6tGp7SN3o+vqFFFFQahXMjwesFzqBs9Vu7ay1B3luLRVRkLsMMQSMrnqQDXTUUAcVH8NrCIRRLf3YtCtsLm3+XbcNAAI2JxkdBkAjOKjf4YabM00c+oXslm8d1GlsSoWNZzl8EDOQeQTmu5ooAwfD/hoaHd312+o3N9c3oiEsk4Uf6tdowFAA4qpB4Hs7fVVv1upzIL25vNpxjdOmxh06ADiupooA4uP4b6fHpUuni9uikmlx6YWwuQiMWDdOvzfSpLz4e2N54pg1172486GaGZYyqMA0Y2gBiNyqR1AOM812FFABXGWv+oH+83/oRrs64y1/1A/3m/8AQjXRQ2ZhW3RNVvTP+P8Aj/H+VVKt6Z/x/wAf4/yrSWzMo/EjoqKKK4zsKl1/rB9Kgqe6/wBYPpUFABRRRQBXvf8AUL/10T/0IVYqve/6hf8Aron/AKEKsU+guoUUUUhhTZJFjQu5wop1NkjWVCjDIPWmrX1E720OK+IOuxReDNStirb7qFoIUALM7nsAK8R1S3ubT7bbXEZSWLR4FkUjlfmjPPpX0fdaQ0kTrE45HAaueHg2O3N6RZ27NfKFnZ23GU+hz29q6eSnLZ2ONVK0fii2cd4BvX0jxncm6iZBqVhbG1cqdsm1F4B6Z6/lXr9tex3B2gFX9DWDpHhj+zIVt4Ujht0XbGgYtt9etTazv0q0tjDceQbi5jgkuiAfIRs5YZ4BJAUE8ZapnGmla92VCVZzvay8zoaK4K48S3ttptwLSWd7q3FyC15JG43RqjcmMYYYbjp712FveSTwPviZXSMMZQMxucfwHuK5zrLtFeeaL4p1W207zb4TXM00dp5MVwUyWlDEyAoP9WcYA65GO9ax8YXSTxRyadBF8kDTRvc/vP3shj+RQPmwRnqOD60AdbRXJR+L7qbeYtPgkMkMktuiXGXASQIRIMfKecgDPTHWopfE15Ne2hspLfyppbUSNIx8vbIJMhcqCOUHX9KAOyorjv8AhNZ/s7yrYW7+ZCZrdFuSWAEqx4l+X5D82eM9CK1LfXbhtcGjT2ka3ikvJ5chKiLYCHGQCfmO3H1oA3axm+8frWzWM33j9awr9DOoJRRRXOZHE/FGVo/C8KKcCS5VWHqACa8f+te2fELTX1DwpM0a7pLZhMAO4HX9DXifvX0OVtOhZdzWGxueDwT4ps/+Bn/x00eL/wDkZ7r/AID/AOgir3h6FtIH290U3Ui4iRxwin+I+57e1M1+B9VJvkRRcouJET+NR3HuP5V0+1j7Ww/qlbm9vb3bf18jmOtevfC2dpPDc8TcrFckL+IBryH+Ve1/DzTX0/wpC0ilZLlzMQeuDwP0Fc2aNKhZ9xT2JJtQu9Lv9WnuL2e5trOOJ0t/LQZMmRjIGcA4qxF4huGktVn05rcTSmJnlchQ2QFA+XPzZ4yBW09tBJ5u+GNvNULJlQd4HY+vU1Cml2EZiKWVuphOYyIx8n09K+fujPQ5u18UXwsrWa5t45J5ociKKQBCTMIxkkZB5qeXxbIjW8C2Km7kkaNojN3WTyztIX5vXtwK3k0ywjJKWdupLbjiMDJzuz+YB+tUNQ8M2Go3KzvvjIGGWMKA3zbieRkEnuCDTug0NmoLr/Ur/wBdE/8AQhU9QXX+pX/ron/oQoj8SEyeiiipAKKKKACiiigAoNFIa0pfxI+onsFFFFeyQFFFFABRRRQAUUUUAFFFFABRRRQAUUUUAFFFFABRRRQAVpeHut9/11X/ANAFZtaXh7rff9dV/wDQBUVPgZVP40T3FzdXV69pZMsYjA82VhnBPYU2Aw6Q0v2u7DyzNvJ28+namGb+ytTuHnVvs9yQwkAyFPoaq6zc28xSWNPMVo/vhyocZ+7059amMb2itmOUrXk3qjT/ALc07/n4H/fJqOCDSNQllkjSOVycvkHNcvvg/wCfRv8Av4f8K19EurW2S4leEwqAMuWLZ9qqVHkjeNyIV+eSUrWL1uh0zVEtUYm2nUsik52MOw9q1iSFJAyfT1rKtjJqOpLemNkt4lKxbhgsT1Na1YVN1fc6aWztt0Kv2mf/AJ8Zf++0/wAaPtM//PjL/wB9p/jVqiouuxdir9pn/wCfGX/vtP8AGj7TP/z4y/8Afaf41aoouuwWOV8NeJNT1a7nt7rS3WKORlF0vC8E8EHqfpWh4vLjwjquzO77O3T071sgBRgAAegqK6t0vLSa2lGY5UKN9CMVo6kXUUkrIzlBum4X1aPAPDDbdcRvMaPEMp3r1X923IrtrSHUfD+ny3WqfbLuBymJZ3YbM8DpJ3JFclZabPpHiq4sbhcSQxzrn+8PLbB/EV2HiDXru98N/ZZLaJEzF8yibPDD1jA/X869Wu3KaUdnY+dwaUKcnLSSvb18yFJJJPE9ncf2hLFBJIE+yRy+YjHB6/vCcH6VmN4zu9AvdQ023trcW0Mkot1EY/dyFsh/w9K08P8A2ppm7zcfal++HA6H+9Go/WuG8Q/8jHqX/Xw/86VKEZytJdB4irOlHmg7O/6HUeBdQuNV+If22ZUEs0TmXYMA/KBn9BXsdeZ/CnRXRbnWJVwrjyYcjqM5Y/yH511t/wCKE0/ULqGSwuXtbQRm5ukKlYg/Qlc7iB3IHFcONadW0emh6uVxksPzT3bbN+is6TXtJiluI5NQt0e2BaYM4GwDAOfpkZ9M1WPifTWmtvKuIpLWZJma5Eg2R+Xjdn/vquQ9E2qKzYNf0m5h82HULd49jvuD9AmNxPpjIz9agk8WeH4ZXjk1ezV0+8pkAI/z+lAGzRVCTW9LhuZLaS/gWaNDI6lxwoGSfy5+lU28W6IFtWjvkmS5uPsyNF8wD7S2DjpwP1FAG3RRRQAUUUUAFcZa/wCoH+83/oRrs64y1/1A/wB5v/QjXRQ2ZhW3RNVvTP8Aj/j/AB/lVSremf8AH/H+P8q0lszKPxI6KiiiuM7Cpdf6wfSoKnuv9YPpUFABRRRQBXvf9Qv/AF0T/wBCFWKr3v8AqF/66J/6EKsU+guoUUUUhhRRRQAVznirT9V1A2S2E8UKRzK5LsQS+fl6DoK6Oq930h/67J/OtKU3CakiZx5lZk0e8xJ5oUSbRuC9M98USRxzRtHKiyRsMMjgEEehBp1FZlFeOws4ohFHaW6RgEBFiUAA9RjHfvUscUcUSxRxokajaqKMAD0Ap9A60AZU93oSIIrh7FVLfZQkiqASuPkAPYHHHQVXY+G7XV57iSaxS8t4QGViv7hEycgfw4DHNYo07UZLCL7DbONStrq5T7R5yqqbpS3zqw+dGG08c8DFWG0nVF8P6pon9nxyGYXDR3nnKFkLksMqfmB5wc8cdaAN2QaKgUyJYj+0Pu5Rf9J43f8AAuOe9TxQafeWiPHBby28iqV/dgqyjleMdu3pXL2/hvUINUs5phG1ppl0BZ4flbchmYkeoJVceie9bnhiOSLw7aCRSpbe6q3VVZyVH5EUAX1sbNGlZbS3VpjukIiUFz1yeOfxpFsYF1OTUME3EkSwkk8BAScD8Sas0UAFYzfeP1rZrGb7x+tYV+hnUEooornMhGUMpVgCpGCD3FeQeLvA9zpN29/psJnsC28ooyYu+CO4969gorow+JnQleP3DTseES+IYZZWf7PIpY5I3A4pI/EEMciuLeQlTkDcBmvYr3wzomoSGS60y3dz1YLtJ/KmWHhzRbG6f7NpdsjJtKtsyRn3Nd/16ha/I7+p1fXatuXm/I838JeB7nWLtb7UYWgsA28IwwZfYDsPevYFUKoVQAoGAB2FLRXBicTOvK8jlbuFFFFc4gooooAKguv9Sv8A10T/ANCFT1Ddf6lf+uif+hCqj8SBk1FFFSAUUUUAFFFFABSHpS0GtKP8SPqJ7CUUUV7JAUUUUAFFFFABRRRQAUUUUAFFFFABRRRQAUUUUAFFFFABWl4e633/AF1X/wBAFZtaXh7rff8AXVf/AEAVFT4GVT+NG0QGGCAR6GsnU7G7mdfsjBYwuAqtsw2evHWteiuaMnF3R0zgpKzOX/sjWP8Ant/5FNaWk2N5AZPtsgkQ42qTuwfWs2TxdFH42XRCB5JTYZPSU8gfTHH1NdRW1WVRJKS3MadKF7xexialrz2Gu2enC3jCTpu82WTYGOcbE4IZu+Mj2qKy8X2Fzp1neTRXNsl0+xfNhbCndtGTjAycCrmpaHDqtxDJcXNz5MbKxt1cCNyrblJGM8H0IrLl8B6XM1t5k9262z74kZ1IX94JAB8vABHbnHBNc50Fp/Fmnm7+zQMzSCRULPGyoQX2ZVsYPzAj8KW38XaPdQSSxTTMF2FVMDhpN5KrsBGWyQRx6VkaP4JntL2d7y4jaF5fOxESWeQSl1JyPlAyRtBOc9asav4LiudMht7GRg8SQxYlkIDRxuWA3AEg5PXB+lAGnca/C3ho6vZBpBIuLdXQqXdjtUEHn7xFa8e8Rp5hBfA3Feme+KwrLQbiPT9Htru4jdbBzIyxpgMQCEA6cLnrjkgHit+gAooooAxdX8PW2pXkOoCNPtkCsoLfdkUggq3tzXC6tPdaWzRXnhR3jHR0feh/Ja9UorenXcdGro5a2FVTWLs/RHjdt4mV7hDbeGpGmQ5XZyQf++auaZ4Av9d1ebUtXiNjazSmQw5zI2TnHt9a9OtAPNu+P+W3/sq1arWWLcf4at+JzRy5St7aXMl0skRW9vDaW0dvbxrHDGoVEUcACsS/8Mvf6jdytqDpZ3ojFxbLEMuE7b+oB78V0FFcZ6aVtEcbqHgn/Q9U+wyoZrou0W+Mboy8gdvmPUZzxj86sTeCo7qOQ3WoSyXErSvJKsarl32YIXoMeWvHfnNL4k1G50/WrCX7ayWQ2rJBBIgk3s4VWKMMunbC4I689qej+KNUnS1juhYOfLuZ7mYOy+WkUm3G0A88/pQBLfeDpLhIS1009zNfie8n2iMNHsCsgUdiqqMfjV6bwjbyrMPtDjzBdjhBx54AP5YrFt/Gl9qLWptxawouorbzO4YLIjQmQbdwBB6D349aVfH9z/ZrXsthDBDI6LDJJISF3FuHVQWyNvYd/agDRPgi1M924nytyjA7ogWRzGIyytnjgdMfjVp/Cy/aFuIb14pVuIZ1PlggeXH5eMe6k/SquleKb28vrPTrqwjivZ0S4ZVclVgKZLfUP8uK6qgAooooAKKKKACuMtf9QP8Aeb/0I12dcZa/6gf7zf8AoRroobMwrbomq3pn/H/H+P8AKqlW9M/4/wCP8f5VrL4WZR+JHRUUUVxHYVLr/WD6VBU91/rB9KgoAKKKKAK97/qF/wCuif8AoQqxVe9/1C/9dE/9CFWKfQXUKKKKQwooooAKr3fSH/rsn86sVXu+kP8A12T+dOO4nsWKKKKQwooooAKKKKACiiigAooooAKxm+8frWzWM33j9awr9DOoJRUVxcRWltLczuEhiQu7HsAMk1npr9tIiullqzIwyrDTJyCP++KwSb2M0mzVorL/ALdg/wCfHV//AAV3H/xFH9uwf8+Or/8AgruP/iKfJLsHKzUqGP8A4+5/ov8AI1R/t2D/AJ8dX/8ABXcf/EVGmtRC4lY2Gr4YLj/iWT9s/wCxTUZWegcrNiisv+3YP+fHV/8AwV3H/wARR/bsH/Pjq/8A4K7j/wCIpckuwcrNSisv+3YP+fHV/wDwV3H/AMRR/bsH/Pjq/wD4K7j/AOIo5Jdg5WalFZsOuWs13DamK9hlmJEf2izliDEDJALKBnAJrSqWmtxWsFQXX+pX/ron/oQqeobr/Ur/ANdE/wDQhVR+JA9iaiiipAKKKKACiiigApDS0GtKP8SPqJ7CUUUV7JAUUUUAFFFFABRRRQAUUUUAFFFFABRRRQAUUUUAFFFFABWl4e633/XVf/QBWbWl4e633/XVf/QBUVPgZVP40bdFFFch1lNo4xqqNsXJibnHuKuVVf8A5CcH/XJ/5rVqqfQSCsLxjb+d4V1B1edJYYXkiaCVkYMAcfdIz9K3aKkZxsmq6hpmvW+j2ccS2iJGQbqRmaYMTuIYkk7ce/4VWtNf1O8vNHeW9SGM3slvc+XDmKQ+XlVVs8jPAPr1GRXd4owPSgAooooAKKKKACiiigCraf627/67f+yrVqqtp/rbv/rt/wCyrVqnLcSCiiikMhktbeWaOaSCJ5Y/uOyAsv0PahLS2idnjt4kZiSxVACc9c/WpqKAKy6dYpF5SWduse4NsESgbh0OMdaqX/h/T9QiCNCIWEom3wAKxcZGTxz1PXNalFAGZp2g2GlyxSWsbK0VuLZNzZwgYt+pOT+FadFFABRRRQAUUUUAFcZa/wCoH+83/oRrs64y1/1A/wB5v/QjXRQ2ZhW3RNVvTP8Aj/j/AB/lVSremf8AH/H+P8q0l8LMo/EjoqKKK4zsKl1/rB9Kgqe6/wBYPpUFABTXdY42kdgqKCzMTgADqadWX4lsp9S8L6rY2rbbi4tJY4zn+IqQKAPGvEnx1vrnUpLPwxpUc9tE+RNKrO0m09Qo6Cuq+HHxdh8Y339k6lapZ6mVLRGMkxzY6gZ5B74rxHwHd22g+JpbrU9Ul0x7MFlhIkAnlU8RvsBIXPJ47YrQ+G1le6z8XLO5t2WURXT3U80KlUCZJJAIBAOcAH1oA+raKKKACiiigAqvd9If+uyfzqxVe76Q/wDXZP5047iexYooopDCiiigAooooAKKKKACiiigArEmkWJJJXOEQFmPsOTW3WJKiyB0cZVsqw9QetYV+hnUPmTUta8QfErxLNDDcNHbAPIkJcrFDEvJLAdTjrwSSa1vh1471fwZ40t9Jm1FrzSprhbeaIszINxADpuAKkZ9BSXfhrxB8NfEl3e2unTX+lyxSwiaIsP3TjkFk5Rhxz7VueDPAniHx14+i8Ua3pr6dpqTRzt5ilTLsA2qob5mztGWPv3rWNraFq1tD6XrGHibT90m/wA1ES6Fpv25zITjGBkjnuQK2axJ/Ddvcag9+91N9pJQo6hBtCtuA4X5vTnPFUMtf2/pXP8Ap0XDiPg9WOQAPXOD09DSTa7p8Vje3aziVLNC8oj5IAz0/I+3FU7fwrZ289tL9ouHNqV8gMVwiruwvA5HzHk88DmiHwpYQabfWMbOIruMxswChlU54BxzjceuaALNl4i068gaTzhEVLBlkYZGGCk5BII3EDIPeqbeMNOjsru5lJQWwztDBvM+Td8uPyzSHwhaFzIbu4EjtmVl2DzPmVsY24Ayi9Md/Wox4JsEhkjiu7uPzY2idgyklGUKV5X/AGRz1oA3ra9t7wyCCVXMbbXx2Pp/MfhVis7T9Ih067u7iOV2NyQWQ4CjGeQABzzyTyeK0aAOU8X/APIW8O/9fUv/AKIekpfF/wDyFvDn/X1L/wCiHpK5a3xGNTcKguv9SP8Aron/AKEKnqC6/wBSv/XRP/QhUR+JEMnoooqQCiiigAooooAKQ0tBrSj/ABI+onsJRRRXskBRRRQAUUUUAFFFFABRRRQAUUUUAFFFFABRRRQAUUUUAFaXh7rff9dV/wDQBWbWl4e633/XVf8A0AVFT4GVT+NG3RRWXcvPPraWSXMkEQtzKTEFyx3Y5JB4rkOsvPEzXkUoxtVWB/HH+FTVQ/s6b/oKXv8A5D/+IrMe61DT9anQTyXlpFBHJJE6r5nzFgWQgDONo479uepcDoqKjgniuoEngkWSJxuVlPBFSUAFFFFABRRRQAUUVDcz/Z4DIELnIUKDjJJA/rQlcCaiqvn3f/PmP+/o/wAKPPu/+fMf9/R/hT5WK4Wn+tu/+u3/ALKtWqrWiSr5zyoEMkm4KGzgYA/pVmiW4LYKKKKQwooooAKKKKACiiigAooooAKKKKACuMtf9QP95v8A0I12dcZa/wCoH+83/oRroobMwrbomq3pn/H/AB/j/KqlW9M/4/4/x/lWkvhZlH4kdFRRRXGdhUuv9YPpUFT3X+sH0qCgAooooA4/xT8O/C3iKb7bqGlobpnUPNExjZ8kD5sda2tB8MaL4YtWttGsIrVGOXK8s/8AvMeTV69/1C/9dE/9CFWKfQXUKKKKQwooooAKZLEkybJFDLnOPen0UAV/sNt/zz/8eP8AjR9htv8Ann/48f8AGrFFPmfcVkV/sNt/zz/8eP8AjR9htv8Ann/48f8AGrFFHM+4WRTMEcF5b+WpXduB+YnPFXKrzf8AH5bfV/5VYpvWwIKKKKkYUUUUAFYzfeP1rZrGb7x+tYV+hnUGSxpNC8UqB45FKup6MDwQayv+EW0IDA0yHA6df8a16K502jK5kf8ACLaH/wBAyH8z/jR/wi2h/wDQMh/X/GteinzPuO7Mj/hFtD/6BkP5n/Gok8MaIbmZTpsOAFwMtx1963Khj/4+5/ov8jTTdmK7M7/hFtD/AOgZD+Z/xo/4RbQ/+gZD+v8AjWvRS5n3HdmR/wAItof/AEDIfzP+NH/CLaH/ANAyH9f8a16KOZ9wuzNtdA0myuUubawhjnTO1xnK5GDjPtWlRRS3EFQXX+pX/ron/oQqeoLr/Ur/ANdE/wDQhTj8SBk9FFFIAooooAKKKKACg0UGtKP8SPqJ7CUUUV7JAUUVSvdUhsbiC3aG6mnmVmSO2gaViq4ycKOANw/OhuwJXLtFZv8AbH/UJ1r/AMF0v+FH9sf9QnWv/BdL/hU88e5XLLsaVFZv9sf9QnWv/BdL/hUE2pCaaMvo2ssihsg6dL14x2pqUe4uWXY2aKxvttv/ANALV/8AwWS/4Ufbbf8A6AWr/wDgsl/wo5odw5ZdjZorFa/tURnbQ9WCqCSTpsvA/Kr9slleWsNzBEjRTIJEO3GQRkU04vZiaa3RboqH7Jb/APPBPyo+yW3/ADwT8qegiaiofslv/wA8E/Kj7Jbf88E/KjQCaiofslv/AM8E/Kj7Jbf88E/KjQCarWmX1tptvf3N3KIoROgLt0GVUCs/7Jb/APPBPyp9v4fs9ZsNQs5B5StMmXjA3ABVOBSajb3noVG/NodbDNFcRLLDIkkbDIZDkH8azv8Ama/+3H/2epdK0ey0W0+zWMPlx5yckksfUmov+Zr/AO3H/wBnrila/u7HWr21M/WNW1O3u5xa+SsEJROQS7Mwz9MAf1qWwhGrPKusWlpcTRBGjkEefkYZAORx0qC/udL+2XTvqNxCwdQ8aw7gXXC/LlDkjIBxV/SJbR7u7EV7Lc3B2+Z5qBSAMgYAUD1pDDw7FHBaXcMKLHEl5MFRRgKN54ArXrK0P/U3v/X9P/6Ea1aACiiigAooooAKq6h/x6j/AK6x/wDoa1aqrqH/AB6j/rrH/wChrTjuhPYtUUUUhhRRRQAUUUUAFFFFABRRRQAUUUUAFFFFABRRRQAVxlr/AKgf7zf+hGuzrjLX/UD/AHm/9CNdFDZmFbdE1W9M/wCP+P8AH+VVKt6Z/wAf8f4/yrWXwsyj8SOioooriOwqXX+sH0qCp7r/AFg+lQUAFFFFAFe9/wBQv/XRP/QhViq97/qF/wCuif8AoQqxT6C6hRRRSGFFFFABRRRQAUUUUAFFFFAFeb/j8tv+B/yqxVeb/j8tv+B/yqxTeyEgooopDCiiigArGb7x+tbNYzfeP1rCv0M6glFFFc5kFFFFABUMf/H3P9F/kamqGP8A4+5/ov8AI1S2YE1FFFSAUUUUAFFFFABUF1/qV/66J/6EKnrE8S/2klrDJp0hB8xVdAoOckYP4GtaMOeoo3t6ik7K5t0VHAkkdvGksnmSBQGfGMnvUlZPQYUUUUAFFFFABSGloNaUf4kfUT2Eooor2SBksscELzTOscaKWZ2OAoHUk153/wALg8J2fjWzuTPcy20FvPA80cOV3O0ZBHcj5DT/AI0XdzbeAiluWCT3KRzEf3ME4/EgV5t4Y8I6VqfgC91K5tZHv9l00DeYwz5SKw24+UYJOd/UfdrCrP7JtSj9o+rdJ1ew1zTYdR0y6jubSYZSRDwfb2PtVJ/EtpHr76Q6OJU6vkEfc39M5xjvjrxXjf7NV7dsuvWLFjZp5Uqg9Fc7gcfUAflXr+p+HdOnuLi9u7yaFJSGbEioqvsMYYNjIOD0zj2rA3J4/EumyXyWyzDDxl1c8ZIYqVweQRg5z0q1DrFhcWcl1DPvhjO1iqMSDwemM9CD071jxeD9Ft40uvNkxGjnzt6gbHJLjgAbTk59vpUv9h6Ta6UNK+1+Ukzq6kMis+CoHAGGH3RyDnNAF1fEWkM4UX8XKeZnnG3bu69Pu84qXS9Vh1ZLh4AwSGYw5YEbiADnB5HWsxfCekJbrp3mSkbQwQyDcQqeXnp6H861dO01NNjmVZppnmkMsjykEliAOwA7CgCTUP8AkG3X/XF/5GuI8O/8izpX/XpF/wCgiu31D/kG3X/XF/5GuI8O/wDIs6V/16Rf+gitqO7Ma2yNOiiiugwCiiigAooooAK0vD3W+/66r/6AKza0vD3W+/66r/6AKip8DKp/GjbrFvbqLT/EKXN0WSB7QxiTYWG4PnHA9KZZ+KbW7vUt2tbq3WWWWGGeVV8uV4ywYAgnH3WIyBkCpLrxTpNr9lc3sDQTzNCZxKuyNghb5jn0H61yHWZlwfDt00jS3s7b3MgG1iEYkE4G3HJA65qexu9A0+6muYbuQyTDDFkbHXPQLWvcataW01nG75W7DGORSCmFUuST6YHWm2+u6TdzJDb6nZzSuSFSOZWLEcnABoAi0HLWdxLtYJNdSyIWBBKljg4PrWrVD+29K+zS3P8AaNr5ETbJJPNXarehOafDq2nXE0cMN9bySyp5kaLICWX1A7igC5RRRQAVltrImdk061lvSpwZEIWMH/ePX8M02+DalqH9mKxW2jUSXRU4LZ+7Hn3wSfb61qRxpFGscaKiKMKqjAAqdXsLczftGtHkafaAejXRz/6DVa+n1k23zWNmB5idLlv74/2K3a5rxnrF5ounwz29mlxE0qq+WIKnIK9PUjFaUqbnNJMmb5Yts0fP1v8A58LP/wACm/8AiKPtGt/8+Fn/AOBTf/EVds3nlsoZLmNY52QF0U5Cn0qeocWtLlWMv7Rrf/PhZ/8AgU3/AMRR9o1v/nws/wDwKb/4itSilyvuFjL+0a3/AM+Fn/4FN/8AEUfaNb/58LP/AMCm/wDiK1KKOV9wsZf2jW/+fCz/APApv/iKPtGt/wDPhZ/+BTf/ABFahOBk1y+t+PNG0bdGsv2u5H/LKA5wfdugrSlQqVZcsLtkzlGCvJ2NT7Rrf/PhZ/8AgU3/AMRR9u1SEZn0oOvc284Y/kQM1xdj8UnFwBqumGG3k+aN4SSQvrg9fqK7rTNY0/WIPOsLqOZe4U8r9R1Fa18FXoazTt+BFOrCp8LJbO/t79GaBzuQ4dGG1kPoQeRVms3U7F2xfWYC30IypH/LVe6N6g/oauWlzHeWkVzF9yVQwz2rnT6M1RNRRRTGFFFFABXGWv8AqB/vN/6Ea7OuMtf9QP8Aeb/0I10UNmYVt0TVb0z/AI/4/wAf5VUq3pn/AB/x/j/KtZfCzKPxI6KiiiuI7Cpdf6wfSoKnuv8AWD6VBQAUUUUAV73/AFC/9dE/9CFWKr3v+oX/AK6J/wChCrFPoLqFFFFIYUUUUAFFFFABRRRQAUUUUAV5v+Py2/4H/KrFV5v+Py2/4H/KrFN7ISCiiikMKKKKACsZvvH61s1jN94/WsK/QzqCUUUVzmQUUUUAFQx/8fc/0X+tTVDH/wAfc/0X+RqlswJqKKKkAooooAKbI6RRtJIwVFGSSeBTq5LxNqbNciziPyRkM/8AtN6VFSahG5MpcquSah4qYsUsVAUf8tGGc/QVjPrGouxY3cufY4qza20WpzF4oyZsFprdQoyO5j/Dt1q8ngnUZJigns1BG5S8uCV9cda5GqtTVamFpy1RQtvEOoW7DdL5q+kgz+tdRpes2+prtX5JgMmMn+Vc9feHL2O6kaERS2pl2rNG6lcepA6VQuHFleILVgDCeHH3ic/xY4/+tRGdSm/e2GpShuehUVV068W/sYrheCw+Yeh71artTuro6E7hRRRTAKDRSGtKX8SPqJ7BRRRXskGfrejWev6RcaZfx77edcHHVT2I9wa8dHwY1sa7HoVl4gRbK7jkm+Yuo2oVB3IOCfnH5V7lWfdW2oLq1pqWm3NtFNBFLEVuIWkVlcoezLgjYPzrOpDmXmXTlyvyNbwL4I0/wJoI06yZpZJG8y4uHGGlf+gHYVp67p82p2cEMDhGW5ilLEA4VWBPBBBNc9/aPiz/AJ/tG/8AAGX/AOO0f2j4s/5/tG/8AZf/AI7WHs5djf2ke4+58O6pDFLp1hITYMmEMk+MDynUrjHdiG9PyqBfDmt/araZH8pIiFCG5LMi7oiwDEc52OfxqT+0fFn/AD/aN/4Ay/8Ax2mNqviwSpH9t0b5gTn7FL2x/wBNfen7KfYPaR7j4fDuskRyySkTwRskL/aG3nMiNl+xyFb256V2tcV/aPiz/n+0b/wBl/8AjtH9o+LP+f7Rv/AGX/47S9nLsHtI9zrNQ/5Bt1/1xf8Aka4jw7/yLOlf9ekX/oIqxNeeK54JImv9HAdSpIsZO4x/z1pdNtPsGl2lnv3+RCkW/GN20AZx+Fa0ouO5lUknsWqKKK2MgooooAKKKKACtLw91vv+uq/+gCs2tLw91vv+uq/+gCoqfAyqfxooJ4RmlRra81EPZLLcSwxxRbGDS7+WbJzgSNjAFQxeCpba3tjb3dsl1byiQSNbF1fEZjAYM57MehFdhXNeLp4opNHS6vpbOzlu2WeSO4aHjynIBYEcZArkOskfwrH/AGXptil0wSxt5IAxXJfdEY8+3XOKii8HwwzxTRzqjxy28gKxAH91GUx+Oc1i23ifWbZLC0jWOZJDI0VxekI1xGJiqDJK/Nswc4JOQcc1a8Ka3eS6q+mSTQXERkunZVDebb7ZsLvJOCGB44HTvQBQvvBOq2tuZLe/mvJ5biJ5XUAOqojrkbmxzv5AIA7CtbQ/CDWd5bahciBJAEkaABm8qRY9nyNuxjHqD35rNj8R65badH9m+zymOOSaRrpXZn/0lowoIIxgY9elSap411HSrDMsdvJeRXMsTqkJCTKjKMglxtOG6fMfagDvaK8/ufHGpLf6mlvHavFaM8flshDKRKqBiS43LgljwMY69663Qb261DSY7i7WASlmGYGDKwBIB4JAyO2T9aAE0f55tTlP3mvGUn2VVUfyrUrL0XpqH/X7L/SnatrVvpMa+YGkmf7kS9TRSi52UdzOdSNOHPN2Rbu7y3sYDNcyiNB3Pf6VinxTo12whmD+WWBBkj+XIOQfzqmkF74i1eGW/spILKFc7GzhjXRT6ZZXFuYJLaMx4wAFxj6eldThTp2U9X5PY41VxFe8qVlFbXT1/wAkSxXltO22K4iduuFcE1NXNXnhK2S2MmnNLFdJ8yEv1Pp7UyHxFf6e0UesWLRxnC+cvr6ntS9gpq9J38upX1uVN2xEbea1X/AOoopqOsiK6MGVhkEdxTq5juCiiigDjviVqDWXhfyY3KPcyrH8pwdo5P8AKuE0Pwzaalpn9pN9pdYwymzjKiS4deTsPpg88Zre+KzStdaWjq62gDEyAZG4kZH1wKr6TJp8uj6dJp9jd6jcafdFAhl8koXYESELnK546/WvocLzUsHFw3b/AK/TqebVtOu1LoSXWhafqkem2/8AZl1ZBrASC683KW43NxJux/jzXNx7fC/i+1SKSXdayos7ngSZPJAH8OD3rudVvLXVLS9s7eO71lG1ARTxC42GAkcbCB9zIPXiuI8YzaZdavMbKadpYgkGCoKNtXGQwOSePTmtsJOc3yTvZp6f1r1/UzrRjH3o7nunUZFZehfLaXEQ+7HdTIo9BvP+NT6O88mi2LXKFJzAnmK3UNgZqDRP9Ve/9fs3/oVfMTXLOx6id7M1KKKKCgooooAK4y1/1A/3m/8AQjXZ1xlr/qB/vN/6Ea6KGzMK26Jqt6Z/x/x/j/KqlW9M/wCP+P8AH+Vay+FmUfiR0VFFFcR2FS6/1g+lQVPdf6wfSoKACiiigCve/wCoX/ron/oQqxVe9/1C/wDXRP8A0IVYp9BdQooopDCsfxB4jtPD8MJmV5bidtkEEf3nP9B71dvPIhUzTySKuQPlJ/kK8y8T3KzfErSwWZ4IkhKbvds961owU5WZE5WR1XiLxVrGgLHIdBaa3wDJOr5UE9sDnjpk1oeHPFdj4jhPkhobhRloX6/UHuKwbDxDdLPPBd3giIlKuXkiO3HbFaun639pukt47mOSRzxtaPIHfgdaHKDhpa/rb8ynTqxkuaLs+trr8LnT0VGrMW61JWQwooooArzf8flt/wAD/lViq83/AB+W3/A/5VYpvZCQUUUUhhRRRQAVjN94/WtmsZvvH61hX6GdQSiiiucyCiiigAqsJY47uYPIq5C43HHrVmkKqeqg/UU00twI/tMH/PaP/vsUfaYP+e0f/fYp+xP7q/lRsT+4v5Ue6Az7TB/z2j/77FH2mD/ntH/32KfsT+6v5UbE/uL+VHugULPXLC9uJLeOYCdGK7G4Jwe3rXD3khlvZ3bqzk/rXeWuk2VnNJNDAolkYs0h5bJOevauH1GBrbUbiJhjDnH07Vhj+S69ne3mc9W9lcuaU9ofLQXAtLxSXS4f7u8EbQT2GM11kNjpdzdC9vNGna4PLfZpBLE59Rg/pWV4Ss7a5tMzwRSH7ai5dAeNjcfSmx6LY6gyMl3h5rn7NGbWLZHnG7JB545+tRSTUU7J3Kgmkna5salBZtaTwWGmR6cbggSXNwyx7RnnauSc/QVyWtaVFpzI8UjbJXby45Bh9gxhiOwJzjPpWxZ6DA4F7ZXd75ZWQCMFVmZkbBwemOc1ha5Bb22qyQ29xLcBcB5ZGDFm78j8qmvrHmaFU1V2ja8KThLK4WRgqK4IJPqP/rVvfa7b/nvH/wB9CsbwpAY9PkmYY8x+PoK363oW9mrmlO/KiH7Xbf8APeP/AL6FH2u2/wCe8f8A30KmorX3S9SH7Xbf894/++hSG7tv+e8f/fQqekPStKXL7SPqJ7EP2u2/57x/99Cj7Xbf894/++hU1FezoZkP2u2/57x/99Cj7Xbf894/++hU1FGgEP2u2/57x/8AfQo+123/AD3j/wC+hU1FGgEP2u2/57x/99CmedHLeReXIr4Vs7TnHSrNFGgBRRRSGFFFFABRRRQAUUUUAFFFFABWl4e633/XVf8A0AVm1peHut9/11X/ANAFRU+BlU/jRt0jKrDDKCPcUtFch1iFQcZAOOlAUAkgAE0tFACbR6Cgqp6qD36UtFAGbbaDptnfNeQ2+JmLnl2YKXOW2qThcnritEAAAAAAdhS0UAZeidNQ/wCv2X+lZU5RPHUZusbDEPJLdM4/xzWrovTUP+v2X+lSaro9rq0IScFXX7ki/eWtMNNR+LZqxyYmlKpBcm6afrYw/E8+oRXuy2W52NGuxoicA5OeB17Vgfadc/56X3/j1a/iW2uUuIoowrp5KKHZwGBXOcc96wPsd5/mZf8AGvVw6j7NbHgY11Pby+L+vka7reiy81dVvmn258nyn6+ma3r058HE3+fMMAzv67+345rmXsbb7FlJbv7Vt+6XTZu+ueldKND/ALSsNNW8mfZDH88anO88d6xquK5W3s+x1YaNRqcYx1cbbu2ve5a8N+Z/wj9p5nXacZ9MnFatNRFjRUQBVUYAHYU6vOnLmk5dz3KUPZ04w7KwUUUVJoUNY0m11vTJbG7XMbjhh1U9iPcV4wUv/BOvXKMJFuVjZYJEOFbPAfHcYzx6169c+KdEtL6Wyl1CP7TCCZI1BbZxuwSBgHHODzV60uLXVLG3vYNssE8ayRMy9VIyDg9K7sJjXQThJc0X0OetQVRqSdmjxSPxjqbJNDcMnkTxskogiWJmJHB3AdQa6H4eeEPtEia1qEX7lDm2jYfeP94j0HavSbqSwsYhLdNbwRs6oGkwoLMcAc9yeKtAADAGBW9bM1Km4Uoct9zOGFtJSnK9hay9E/1V7/1+zf8AoValZeif6q9/6/Zv/Qq8h7o6+pqUUUVQwooooAK4y1/1A/3m/wDQjXZ1xlr/AKgf7zf+hGuihszCtuiaremf8f8AH+P8qqVb0z/j/j/H+Vay+FmUfiR0VFFFcR2FS6/1g+lQVPdf6wfSoKACiiigCvegm3yFZsOpwoycAij7Yn/PKf8A78t/hViindWEc5ceLI7XxD/ZklncOrKrK8aEsCfVeuPeujByM0wQxLM0wjQSsAGfHJA6DNPqpuLtyqwopq92QyG53ny1iK/7ROa8v+JdpNba7puqEBTLGYiV6BlOR+h/SvT7uGGa3YTsVjHzFg5XGPeuD1TUdMupkt2tDcaekyvmV2LOynquTwOfxqqM+SfMKaurGrpd0txbG9Vx5dwFlABPBPDDqOhrWtzDIheSYKOmPMIP864tPENg/iK40+OE2VmJNqBlChZBwdwIOAeO3YHvXa2umpbwyvdLCYsbtzlCAB34UVhUwdKM+aV9eg/rFZvljsXLZYvMZ4pC+48/vNwH+FW6p2BtJYRNYtA0LH70JG0n8KuVVktENXtqRSTrE20pKeM/LGWH6Uz7Yn/PKf8A78t/hViinoGpU8zzruArHKAu4ktGVHT3q3RRQ3cEFFFFIYUUUUAFYzfeP1rZrGb7x+tYV+hnUEooornMgooooAKKKKACiiigAooooAKwPEekNdoLu3XMqDDqP4h/jW/RUzipqzFKKkrM4S01qbTtPW3tU8ubz/OaU85wMAAfiaqxaldwxRxRTFFjm89do5D9M5rsNQ0CzvmMmDFKerJ3+orIfwjOG+S6jI91IrjlTqrRGDhNEdn4lm86Rr15QDHsQ2wVNmTk/LjBz3zUMyHxFrbSWtv5EJChjgcADBJxxk1o23hJFYG5uSw/uoMfrXQW9tDaQiKCNUQdhWkadSStPYpQk9JCwQJbQJDGMIgwBUlFFdJsFFFFMAoNFBrSj/Ej6iewlFFFeyQFFFFABRRRQAUUUUAFFFFABRRRQAUUUUAFFFFABRRRQAVpeHut9/11X/0AVm1peHut9/11X/0AVFT4GVT+NG3RRRXIdYUUUUAFFFFABRRRQBl6J01D/r9l/pWpWXonTUP+v2X+lalTHYS2OZ8Q6Jf6jeF7YRGJkVW3nBBBPT865658NX1oIzMYF8xwi/P1J6DpXa6hb6tLOrWN5DDFtwVePJzWBqGkeI7qZd9ykyoQ6lWCgMO+K9TD15JKPMkjwsbhISlKahJv5W/zEfwu5s9i6eouNuPM+08bvXGK6jTbd7TTbe3kxvjjCtjpmse3svEogUPqMCt3DJuI/HHNb0CyrbxrO4eUKN7KMAmuevUlJWck/S/6nbg6MIS5owcdOtv0JKKKK5T0QooooA4Cw03WNIt/EmknSZrkald3NzDexyJsKyrwHyQwYdMYPasGHw14otIoLRNPndJf7KdpFuFCwiHAlUjOc8duCK9dooA8euvBesXOl6rbPpMtzAt/Bdwm6kT7RNiUtIuQ5VgFOATtJ6dq04/DGvN46N9ILqK2FykttJGEISAR48liZMqOuQFOTzmvTqKAOW+H2gS6B4UtoryKVNRlG+682YyEvkgckkDjHArV0T/VXv8A1+zf+hVqVl6J/qr3/r9m/wDQql7oXU1KKKKoYUUUUAFcZa/6gf7zf+hGuzrjLX/UD/eb/wBCNdFDZmFbdE1W9M/4/wCP8f5VUq3pn/H/AB/j/KtJfCzKPxI6KiiiuM7Cpdf6wfSoKnuv9YPpUFABRRRQAUUUUAFFFFAHKeKLt55v7ODOiYDHHSQ9gfaofDnhw5TUdRT5usUJHT0JH9K617eGSRZJIkZ0+6zLkipKdyeXW7OW8TeELHX5PtKM1tfAY81UyHHow7/Wquj6BrdpA1jfanBPpxG0wmMyEj05xgV2dFaKtNR5egcqvchgSGCFIYYxHGowqqmAB9Kmo6UVkUFFFFABRRRQAUUUUAFFFFABWM33j9a2axm+8frWFfoZ1BKKKK5zIKKKKACiiigAooooAKKztdkuU0iZLONnuZsQxheMFjjJPYAEnPtWJpS6vA9lpGZrWK3llR5Col3RABoxvIx0OCfamkOx1hIUEkgAdSaAQRkHIrz8W+pXekR2kz3cjiLZNJJAN+4XC5XJXBG3J75HtV+fV9bh1DUILS2nMEMD+XvgHysrKAVAAz8pYgZOcdqfKFjsaK4ya71OG8luLa8vrlHs0ERezwCRIQ7bNo+YKcgcZ96t2VzrV7c28Iupo7YvPi5e0CtKi7dhZSPl5LdhnFLlCx1FFclHdXmteHr5r55LdEdbf91CX/eIcSMVXlkLZGB2BqlDc6tbfvoYbm3BslWK3SFnjGJSGcAjIOw7gpOeg5p8oWO6orl7K81m5urdPPn+yCSY+e1qFeeNQhXII+XJLDoM4rLPiTW1tpd0V0vmTxpCTAvm4KOzAAqF4KjPBxk8mjlYWO8orktH1PWrvUrVZbiN7UohLCI7ZlMYLOCFwDvyOo6dK62k1YGgoNFBq6P8SPqS9hKKKK9kgKKKKACiiigAooooAKKKKACiiigAooooAKKKKACiiigArS8Pffvh/wBNVP8A46Kzau6FJs1K5iP/AC0jVx+BIP8AMVM/gZUPiR0FFFFcZ1hRRRQAUUUUAFFFFAGXovA1H/r9l/pViw1bTtVEhsL2C5EZw/lOG2/XFVtHGY9SA73sv9K5qx8G3sOnaYLi6ne4BhiuljlEQSBA52Apgt8zdc5NTHYS2O6qGK6gnlniikDPAwSVR/CSAQD+BB/GuKl0TxIbq9a3kmimZbgG5a8JSdW/1SqmfkKjAzgYweuaLHSNb04y3Nrp8yLJeGT7K98HcoYAgJck5wwzjJ9qoZ3LukaM8jKqKMlmOABTY54pXkSORWaMgOAfukjIz+BrgpfDmt3enz2d/BNcSy6akEc324hI3EWGVlz8xL5O7B69eKln0XW2GRaXLWZK/wChR3/luP3KqDvDdAwY4zznPOKAO8orjLXQddjvrW7ubuaW4iktVdxcsEZBHib5M4OW9Rk9a7OgAooooAKKKKACiiigArL0T/VXv/X7N/6FWpWXon+qvf8Ar9m/9CqXuhdTUoooqhhRRRQAVxlr/wAe4/3m/wDQjXW3Uwt7SaZuiIW/IVydspS2jU9doz9a6KOzOetuiWremf8AH/H+P8qqVb0z/j/j/H+VaS+FmcfiR0VFFFcZ2FS6/wBYPpUFT3X+sH0qCgAooooAKKKKACsfxPEs2hyI1w8C+YhLLG7g4OdrBPm2nocVsUUAcDb6pqdp51wyX1ur2Nv5FoIjIqHeyswZhkcbT83OCMg4qOTUtaubSO7uDcK82mSgWwgOx5VlI5wOCVwe2e1drqurWui6e99eO6woQDsUsSSccAVOby2EkcZuYhJIAUQyAM2emB3oAxdL1C/vJdTSWZluYzKsds1sUWLDEId/RtwwfxrHs7tLLRYpLMXkWosYk1KeaCWRosn532nhjn0zwc9K6q71eztYDKZllCzJCwjYMUZmCjPPHJqw97bRKGkuoUUgEFpABg9D170AcFquq61e6QLefzollizGUsmJusTYGf8Ann8gVse9b+j6lrF34gu4bwRx20bSKITGwZQGARg23BBHPU9eK3Ev7dnKGVY38wxKrsAXYegzz1qxmgAooooAKKKKACiiigAooooAKxm+8frWzWM33j9awr9DOoJRRRXOZBRRRQAUUUUAFFFFABRRRQBlr4gsDNqcRd1bTQDPuXHBGcr6+n1qey1eyv7e1ljnVWuYxLFFIwWQqf8AZzmsufwus+pm7N0VV7kyyxhOJE2phD9GRWz9RUEfhS4S50xzqWYbHyyI9hG4qGB6HHO7vnGKdkPQ311OxeOSVb62aOPHmMJVITPTJzxStqFmjQh7y3VpseUDKP3mem3nn8KwU8KSW9mkNrepC620UDMsWN+xyxJwcjOcccj1rLHhnUrPULKFA1zbQpEhfhVYh3JYnduUqGyOuTTsu4WR1sV5pltbsYrq0jhjchisihVY5JB54PU1KuoWTxySJeW7JEAZGEqkJnpk54rAsPCEdpHbJJJDJ5EsbbijEyKgYANuYjPzZ44preDUFmkEdwkeyGJBtjKhmSQuCcEHBzjrmlZBodAdRst0Sm9t8zY8seavz56Y55qBJtL1+CRR5N3HDKyMGAba6kg/TvWUfCUZiYCSFGMKICsZO1hKZCQWJPJPrWtplg+n/a1MiPHNcPMgVNpXcckE555PtRp0AuxokUaxxqqRqMKqjAA9AKdRRSEFBooNaUf4kfUT2Eooor2SAooooAKKKKACiiigAooooAKKKKACiiigAooooAKKKKACkWf7HdQ3n8MTYk/3Dwfy4P4UtBGRgjIoA6wEEAggg8gilrC0W/8AJK6fO3T/AI93Pcf3fqP5Vu1xzi4ux1wkpK4UUUVJQUUUUAFFFFAGXovTUP8Ar9l/pWpWXYn7NrF/aNx5zC5i9wQFb8iP/HhWpUx2EtgoooqhhRRRQAUUUUAFFFFABRRRQAUUUUAFZeif6q9/6/Zv/Qq0J5o7aCSaVgscalmJ7AVS0SKSPTEeVSsk7NMynsWJOPyIqXuLqaNFFFUMKKKgu7uKytmnmbCL6dSewHqaaV9EDdtWZviC4BhjslPzTHL+yDr+ZwKy6aXluJ5LqcYlk/h/uL2X/PenV2RjyqxxylzO4Vb0z/j/AI/x/lVSremf8f8AH+P8qJfCwj8SOioooriOwqXX+sH0qCp7r/WD6VBQAUUUUAFFFFABRRRQBl6vo/8AbE1oJbiSO2gZnZIzhnYrtHPoAW/OsiHwcyCMy3UUs0S2qRytF86rDKWHPqVIFdXRQByEHg+7F5c3FzqMcvnPEcCPAwkxk6dBkHHFQweErqSyuVLpFOLoi0klUloIE3CPABwfvNweCDzXa0UAc0PDE6aml5HdQq4unnaTYd5ViuUxnHO3rjjtXS0UUAFFFFABRRRQAUUUUAFFFFABWM33j9a2axm+8frWFfoZ1BKKKK5zIKKKKACiiigAooooAKKKKACiiigAooooAKKKKACiiigAooooAKDRQa0pfxI+onsJRRRXskBRRRQAUUUUAFFFFABRRRQAUUUUAFFFFABRRRQAUUUUAFFFFADZI1kTaw468dQfUVoWWtPbARX+WQcLcAf+hDt9ao0UmlJWY03F3R1cciTRh43V0PRlOQadXHpGYXL20skDnkmM4B+o6H8qtpqmpxjBlglH+3GQf0P9KxdHszZVl1R0tFc5/bWpf88rT82o/trUv+eVp+bVPsZD9tE6Oiuc/trUv+eVp+bUf21qX/PK0/NqPYyD20TX1Cx+2JG8Unk3MLboZQM7T3BHcHoRVZdZFt+71SFrSQceZgtE3uGHT6HFUf7a1L/nlafm1H9s6kesVp+bUnQnuhe1iaf9u6T/ANBOz/7/AK/40f27pH/QUs/+/wCv+NZP9p3v/PrY/k1H9p3v/PrY/k1HsankHtka39u6R/0FLP8A7/r/AI0f27pH/QUs/wDv+v8AjWT/AGne/wDPrY/k1H9p3v8Az62P5NR7Gp5B7ZGt/bukf9BSz/7/AK/40f27pH/QUs/+/wCv+NZP9p3v/PrY/k1H9p3v/PrY/k1HsankHtka39u6R/0FLP8A7/r/AI0f27pH/QUs/wDv+v8AjWT/AGne/wDPrY/k1H9p3v8Az62P5NR7Gp5B7ZGt/bukf9BSz/7/AK/40f27pH/QUs/+/wCv+NZP9p3v/PrY/k1H9p3v/PrY/k1HsankHtka39u6R/0FLP8A7/r/AI019f0tR8t7FKx6LCfMY/guTWX/AGne/wDPrY/k1OXVr9Pu29kv03Cj2FTyD2yLvk3OsSI11C1vYIwYQP8AfmI6b/Rfbv3rXrnP7a1L/nlafm1H9tal/wA8rT82oVCSBVYnR0Vzh1nUiMbLRffDH+oqvLc31wMTXjhT1WEbB+fX9apUX1YOsuhu3urW1kdhbzJz0hj5b8fQfWsCaWe9nE90Rlf9XGv3U/xPvTI4kiGI1C56+/1p9bRgo7GUpuW4UUUVRIVb0z/j/j/H+VVKt6Z/x/x/j/Kpl8LHH4kdFRRRXGdhUuv9YPpUFWLn/WD6VDQA2inUUANop1FADaKdRQA2inUUANop1FADaKdRQA2inUUANop1FADaKdRQA2inUUANrGb7x+tbdZLfeP1rCv0M6hDRUtFc5kRUVLRQBFRUtFAEVFS0UARUVLRQBFRUtFAEVFS0UARUVLRQBFRUtFAEVFS0UARUhqakxWlL+JH1B7EVFS4oxXsmZFRUuKMUARUVLijFAEVFS4oxQBFRUuKMUARUVLijFAEVFS4oxQBFRUuKMUARUVLijFAEVFS4oxQBFRUuKMUARUVLijFAEVFS4oxQBFRUuKMUARUVLijFAEVFS4oxQBFRUuKMUARUVLijFAEVFS4oxQBFRUuKMUARUVLijFAEVFS4oxQBFRUuKMUARUVLijFAEVFS4oxQBFVvTP8Aj/j/AB/lUOKtaf8A8f0f4/yqZfCyo7o3qKKK4zrP/9k=;strokeColor=none;strokeWidth=102;spacingTop=-3;spacingBottom=-3;spacingLeft=-3;spacingRight=-3;rounded=0;html=1;whiteSpace=wrap;" parent="1" vertex="1">
          <mxGeometry x="-450" y="410" width="1693" height="902" as="geometry" />
        </mxCell>
      </root>
    </mxGraphModel>
  </diagram>
</mxfile>
